<svg xmlns="http://www.w3.org/2000/svg" width="375" viewBox="0 0 375 375" height="375" version="1.0"><defs><clipPath id="a"><path d="M 115 113 L 264 113 L 264 270 L 115 270 Z M 115 113"/></clipPath><clipPath id="b"><path d="M 213.519531 302.234375 L 81.65625 223.167969 L 166.507812 81.65625 L 298.371094 160.722656 Z M 213.519531 302.234375"/></clipPath><clipPath id="c"><path d="M 213.519531 302.234375 L 81.65625 223.167969 L 166.507812 81.65625 L 298.371094 160.722656 Z M 213.519531 302.234375"/></clipPath></defs><g clip-path="url(#a)"><g clip-path="url(#b)"><g clip-path="url(#c)"><path fill="#CEDEDF" d="M 125.382812 150.371094 C 143.453125 120.390625 189.105469 104.816406 221.777344 117.6875 C 235.71875 123.179688 246.503906 131.972656 250.433594 147.300781 C 250.875 149.007812 251.492188 150.796875 252.492188 152.21875 C 273.148438 181.636719 261.445312 222.300781 235.070312 245.867188 C 221.019531 258.421875 204.519531 265.660156 186.253906 268.925781 C 164.503906 272.808594 148.277344 262.675781 134.433594 247.210938 C 113.359375 223.664062 109.035156 177.496094 125.382812 150.371094 Z M 132.046875 151.21875 C 148.429688 144.257812 163.902344 136.5 180.160156 131.105469 C 197.050781 125.503906 214.648438 126.808594 231.855469 132.261719 C 205.492188 110.34375 154.796875 119.96875 132.046875 151.21875 Z M 253.359375 175.59375 C 253.683594 201.929688 240.945312 223.308594 225.558594 246.050781 C 248.800781 233.40625 263.039062 195.839844 253.359375 175.59375 Z M 243.023438 185.488281 C 249.078125 167.765625 236.761719 149.808594 216.46875 146.648438 C 224.972656 159.089844 234.121094 172.46875 243.023438 185.488281 Z M 130.179688 208.683594 C 132.441406 194.023438 134.773438 178.910156 136.894531 165.183594 C 122.597656 175.339844 119.148438 196.875 130.179688 208.683594 Z M 188.039062 136.164062 C 197.835938 137.136719 207.980469 136.855469 217.328125 139.449219 C 226.339844 141.949219 234.527344 147.421875 244.363281 152.21875 C 228.429688 134.035156 208.988281 132.296875 188.039062 136.164062 Z M 231 209.640625 C 237.980469 196.828125 235.160156 181.421875 224.460938 170.191406 C 226.574219 182.949219 228.628906 195.328125 231 209.640625 Z M 159.847656 255.234375 C 149.832031 242.625 141.25 231.824219 132.671875 221.027344 C 131.871094 221.71875 131.074219 222.414062 130.273438 223.109375 C 135.851562 236.695312 145.382812 246.867188 159.847656 255.234375 Z M 159.847656 255.234375"/></g></g></g><g><g><g><path d="M -3.1875 -50.246094 C -0.6875 -44.726562 -0.328125 -44.308594 3.132812 -41.007812 C 5.535156 -38.707031 6.851562 -37.730469 9.734375 -35.796875 C 10.351562 -35.398438 10.785156 -34.921875 10.742188 -34.660156 C 10.703125 -34.398438 10.988281 -34.101562 11.324219 -33.9375 C 11.660156 -33.773438 12.070312 -33.554688 12.214844 -33.375 C 12.632812 -33.023438 12.882812 -33.109375 12.902344 -33.628906 C 12.808594 -33.941406 12.949219 -33.828125 13.25 -33.335938 C 13.644531 -32.535156 14.59375 -32.039062 15.617188 -32.132812 C 16.257812 -32.191406 19.003906 -31.082031 18.363281 -31.023438 C 18.171875 -31.007812 17.992188 -30.863281 18.003906 -30.734375 C 18.03125 -30.414062 18.695312 -30.214844 19.398438 -30.28125 C 19.714844 -30.371094 19.988281 -30.203125 19.941406 -30.007812 C 19.957031 -29.8125 20.421875 -29.664062 21.070312 -29.65625 C 21.847656 -29.597656 22.449219 -29.394531 22.878906 -28.917969 C 23.238281 -28.496094 23.839844 -28.292969 24.425781 -28.21875 C 25.78125 -28.210938 26.246094 -28.058594 26.339844 -27.746094 C 26.351562 -27.617188 26.492188 -27.5 26.683594 -27.519531 C 27.324219 -27.574219 28.550781 -26.847656 28.453125 -26.515625 C 28.476562 -26.261719 28.691406 -26.019531 29.160156 -25.804688 C 29.628906 -25.652344 29.964844 -25.492188 29.976562 -25.363281 C 29.988281 -25.234375 30.320312 -25.136719 30.640625 -25.164062 C 31.03125 -25.136719 31.367188 -24.972656 31.382812 -24.78125 C 31.40625 -24.523438 31.828125 -24.175781 32.296875 -23.960938 C 33.507812 -23.421875 33.652344 -23.242188 33.976562 -21.789062 C 34.367188 -20.339844 34.304688 -19.621094 33.417969 -16.574219 C 32.34375 -12.734375 28.097656 -7.574219 23.300781 -4.238281 C 22.394531 -3.574219 17.398438 -0.992188 16.953125 -0.953125 C 16.695312 -0.929688 16.265625 -0.695312 15.960938 -0.476562 C 15.175781 0.113281 12.5625 0.476562 10.039062 0.382812 C 7.449219 0.292969 6.476562 -0.457031 5.59375 -3.085938 C 5.332031 -3.839844 5.332031 -3.839844 5.179688 -3.371094 C 5.082031 -3.039062 4.984375 -2.710938 4.859375 -2.632812 C 4.6875 -2.425781 5.433594 0.152344 5.789062 0.507812 C 5.929688 0.625 6.082031 0.871094 6.097656 1.0625 C 6.121094 1.316406 6.582031 2.117188 7.167969 2.902344 C 7.902344 3.867188 8.535156 4.457031 9.335938 4.769531 C 9.941406 5.039062 10.417969 5.316406 10.429688 5.445312 C 10.472656 5.894531 13.46875 6.914062 16.085938 7.324219 C 17.269531 7.539062 23.746094 6.371094 24.855469 5.820312 C 25.964844 5.203125 28.820312 3.265625 29.71875 2.476562 C 31.039062 1.390625 32.589844 -0.0429688 32.875 -0.453125 C 33.113281 -0.671875 33.34375 -0.949219 33.472656 -0.960938 C 33.921875 -1 37.449219 -6.226562 38.203125 -7.90625 C 39.292969 -10.136719 39.820312 -12.117188 39.980469 -13.941406 C 40.113281 -15.308594 39.96875 -16.199219 39.277344 -18.847656 C 38.878906 -20.421875 36.820312 -23.207031 33.472656 -26.648438 C 32.835938 -27.300781 32.328125 -27.898438 32.316406 -28.027344 C 32.171875 -28.917969 25.867188 -33.703125 25.738281 -32.984375 C 25.644531 -32.585938 25.320312 -32.621094 25.144531 -33.121094 C 25.035156 -33.628906 24.226562 -34.007812 17.902344 -36.855469 C 11.714844 -39.589844 11.25 -39.738281 7.421875 -42.105469 C 1.898438 -45.414062 0.578125 -47.164062 0.00390625 -52.082031 C -0.195312 -53.550781 0.335938 -56.953125 0.832031 -57.902344 C 1.058594 -58.246094 1.378906 -58.984375 1.640625 -59.652344 C 2.214844 -61.1875 3.367188 -63.421875 4.554688 -65.273438 C 5.457031 -66.710938 6.265625 -67.75 8.707031 -70.746094 C 10.160156 -72.492188 10.160156 -72.492188 10.347656 -72.574219 C 10.476562 -72.585938 10.882812 -73.074219 11.28125 -73.691406 C 12.128906 -74.992188 13.96875 -76.773438 15.199219 -77.464844 C 15.75 -77.773438 16.351562 -78.277344 16.570312 -78.6875 C 16.800781 -79.027344 17.753906 -79.890625 18.667969 -80.488281 C 19.582031 -81.085938 20.488281 -81.75 20.734375 -81.902344 C 20.914062 -82.046875 21.222656 -82.203125 21.351562 -82.214844 C 21.542969 -82.234375 21.90625 -82.523438 22.195312 -82.871094 C 22.554688 -83.164062 23.167969 -83.542969 23.609375 -83.644531 C 24.296875 -83.902344 25.164062 -84.304688 26.449219 -85.066406 C 27.054688 -85.507812 29.808594 -86.464844 31.757812 -87.027344 C 34.523438 -87.859375 37.769531 -88.347656 40.347656 -88.386719 C 42.925781 -88.425781 43.460938 -88.214844 43.683594 -87.203125 C 44.007812 -85.75 43.117188 -81.34375 41.660156 -77.46875 C 41.40625 -76.671875 41.09375 -75.867188 41.050781 -75.605469 C 40.808594 -74.746094 39.023438 -70.90625 38.734375 -70.558594 C 38.382812 -70.136719 38.378906 -70.203125 38.449219 -70.855469 C 38.523438 -71.441406 38.523438 -71.441406 38.210938 -70.636719 C 37.289062 -67.972656 35.226562 -65.078125 35.054688 -66.289062 C 35.023438 -66.609375 33.070312 -68.238281 32.8125 -68.214844 C 32.496094 -68.1875 32.734375 -67.691406 33.292969 -67.226562 C 33.574219 -66.929688 33.734375 -66.621094 33.667969 -66.613281 C 33.605469 -66.609375 33.835938 -66.175781 34.144531 -65.625 C 34.449219 -65.136719 34.949219 -63.890625 35.222656 -63.011719 C 36.085938 -60.574219 36.390625 -60.082031 37.335938 -59.589844 C 37.816406 -59.308594 38.507812 -58.789062 38.855469 -58.5 C 39.996094 -57.3125 41.742188 -57.984375 42.664062 -59.941406 C 43.785156 -62.496094 45.558594 -66.460938 45.644531 -66.921875 C 45.75 -67.191406 46.058594 -68.058594 46.425781 -68.992188 C 47.21875 -70.9375 48.648438 -75.839844 48.542969 -76.285156 C 48.523438 -76.476562 48.625 -76.808594 48.742188 -76.949219 C 48.851562 -77.152344 49.074219 -78.269531 49.160156 -79.4375 C 49.558594 -83.605469 48.390625 -87.242188 45.75 -90.746094 C 44.355469 -92.621094 41.933594 -94.402344 41.039062 -94.320312 C 40.71875 -94.292969 40.386719 -94.390625 40.300781 -94.640625 C 40.21875 -94.828125 39.824219 -94.921875 39.375 -94.882812 C 38.992188 -94.847656 38.464844 -94.929688 38.320312 -95.109375 C 38.183594 -95.226562 37.785156 -95.320312 37.464844 -95.289062 C 37.082031 -95.253906 36.550781 -95.402344 36.140625 -95.6875 C 35.445312 -96.203125 34.730469 -96.269531 34.578125 -95.804688 C 34.527344 -95.667969 33.710938 -95.402344 32.753906 -95.316406 C 29.820312 -94.921875 24.621094 -93.160156 21.488281 -91.394531 C 21.054688 -91.222656 19.949219 -90.609375 19.085938 -90.144531 C 18.230469 -89.613281 16.582031 -88.5625 15.429688 -87.746094 C 14.335938 -87.003906 13.300781 -86.328125 13.234375 -86.324219 C 13.171875 -86.316406 12.390625 -85.664062 11.566406 -84.816406 C 10.667969 -84.023438 9.886719 -83.375 9.824219 -83.367188 C 9.441406 -83.332031 5.371094 -79.09375 4.515625 -77.855469 C 4.34375 -77.582031 4.042969 -77.359375 3.914062 -77.347656 C 3.785156 -77.335938 3.546875 -77.121094 3.378906 -76.847656 C 3.214844 -76.511719 2.582031 -75.679688 1.941406 -74.910156 C -0.609375 -71.710938 -2.65625 -67.914062 -3.800781 -64.195312 C -5.054688 -60.207031 -5.113281 -59.429688 -4.59375 -55.796875 C -4.203125 -52.929688 -4.011719 -52.234375 -3.1875 -50.246094 Z M 32.117188 -13.101562 C 32.308594 -13.117188 32.378906 -13.058594 32.386719 -12.996094 C 32.390625 -12.933594 32.339844 -12.796875 32.15625 -12.652344 C 32.101562 -12.582031 31.964844 -12.636719 31.953125 -12.761719 C 31.941406 -12.890625 31.988281 -13.089844 32.117188 -13.101562 Z M 10.207031 2.949219 C 9.992188 2.710938 9.863281 2.722656 9.945312 2.910156 C 9.96875 3.164062 9.773438 3.183594 9.378906 3.089844 C 8.785156 2.949219 7.355469 2.109375 7.472656 1.96875 C 7.527344 1.902344 8.054688 1.984375 8.773438 2.109375 C 9.699219 2.351562 10.664062 2.328125 12.953125 1.925781 C 15.304688 1.519531 15.820312 1.539062 15.53125 1.886719 C 14.878906 2.527344 15.390625 2.480469 16.6875 1.847656 C 17.429688 1.457031 18.609375 0.964844 19.359375 0.703125 C 20.109375 0.441406 20.664062 0.132812 20.660156 0.0703125 C 20.640625 -0.125 21.425781 -0.710938 22.339844 -1.308594 C 23.3125 -1.976562 24.226562 -2.578125 24.34375 -2.71875 C 24.394531 -2.851562 24.640625 -3.003906 24.769531 -3.011719 C 25.152344 -3.046875 24.3125 -2.328125 22.683594 -1.082031 C 21.902344 -0.429688 21.125 0.21875 20.949219 0.429688 C 20.773438 0.640625 20.042969 1.09375 19.355469 1.347656 C 18.679688 1.730469 17.933594 2.058594 17.683594 2.144531 C 16.753906 2.550781 13.90625 3.195312 12.234375 3.28125 C 11.019531 3.390625 10.496094 3.3125 10.207031 2.949219 Z M 34.441406 -3.824219 C 34.121094 -3.792969 34.097656 -4.050781 34.398438 -4.273438 C 34.515625 -4.410156 34.585938 -4.351562 34.605469 -4.160156 C 34.679688 -4.039062 34.5625 -3.898438 34.441406 -3.824219 Z M 35.988281 -14.546875 C 36.265625 -14.316406 35.757812 -11.363281 35.304688 -9.96875 C 35.042969 -9.300781 34.488281 -8.28125 34.152344 -7.734375 C 33.6875 -7.175781 33.421875 -6.507812 33.433594 -6.378906 C 33.457031 -6.121094 33.238281 -5.714844 32.941406 -5.429688 C 32.636719 -5.210938 32.410156 -4.867188 32.425781 -4.675781 C 32.457031 -4.355469 32.222656 -4.074219 30.644531 -2.253906 C 27.832031 0.90625 23.765625 3.726562 20.800781 4.507812 C 18.28125 5.1875 14.585938 5.714844 13.222656 5.644531 C 11.472656 5.546875 10.808594 5.347656 11.035156 5.003906 C 11.210938 4.792969 11.46875 4.773438 11.867188 4.929688 C 12.730469 5.175781 15.710938 4.582031 18.21875 3.773438 C 20.777344 2.832031 24.945312 0.390625 26.546875 -1.171875 C 26.839844 -1.523438 27.851562 -2.453125 28.742188 -3.308594 C 30.648438 -5.09375 32.632812 -8.113281 31.863281 -8.042969 C 31.800781 -8.039062 31.160156 -7.269531 30.472656 -6.304688 C 28.394531 -3.597656 24.261719 -0.0625 21.734375 1.261719 C 19.695312 2.285156 20.867188 0.953125 23.777344 -1.117188 C 26.503906 -3.105469 30.640625 -7.289062 30.578125 -7.992188 C 30.550781 -8.3125 32.589844 -11.464844 32.84375 -11.488281 C 33.226562 -11.523438 33.101562 -10.800781 32.6875 -9.667969 C 31.816406 -7.847656 32.371094 -8.152344 33.355469 -10.113281 C 34.175781 -11.738281 34.6875 -12.492188 34.375 -11.691406 C 34.328125 -11.492188 34.402344 -11.371094 34.59375 -11.386719 C 34.847656 -11.476562 34.996094 -11.941406 35.125 -12.664062 C 35.265625 -13.964844 35.640625 -14.839844 35.988281 -14.546875 Z M 28.273438 -31.339844 C 28.554688 -31.105469 28.832031 -30.875 28.839844 -30.808594 C 28.875 -30.425781 28.734375 -30.542969 28.167969 -31.074219 C 27.667969 -31.609375 27.667969 -31.609375 28.273438 -31.339844 Z M 26.867188 -31.210938 C 27.214844 -30.921875 27.492188 -30.6875 27.429688 -30.683594 C 27.167969 -30.722656 25.886719 -31.316406 25.871094 -31.511719 C 25.847656 -31.765625 26.25 -31.609375 26.867188 -31.210938 Z M 25.109375 -32.085938 C 25.457031 -31.796875 25.601562 -31.613281 25.476562 -31.601562 C 25.347656 -31.59375 24.882812 -31.742188 24.597656 -32.039062 C 23.769531 -32.609375 24.214844 -32.714844 25.109375 -32.085938 Z M 22.492188 -33.207031 C 22.617188 -33.214844 22.824219 -33.105469 22.902344 -32.917969 C 23.125 -32.617188 23.0625 -32.613281 22.582031 -32.890625 C 22.375 -33.066406 22.296875 -33.1875 22.492188 -33.207031 Z M 21.226562 -33.605469 C 21.566406 -33.445312 21.769531 -33.332031 21.78125 -33.207031 C 21.863281 -33.019531 21.726562 -33.070312 21.175781 -33.472656 C 20.691406 -33.816406 20.691406 -33.816406 21.226562 -33.605469 Z M 19.621094 -34.238281 C 19.8125 -34.253906 20.082031 -34.148438 20.285156 -34.039062 C 20.488281 -33.929688 20.566406 -33.804688 20.4375 -33.792969 C 20.308594 -33.78125 20.042969 -33.886719 19.773438 -33.992188 C 19.570312 -34.101562 19.496094 -34.226562 19.621094 -34.238281 Z M 16.785156 -35.65625 C 16.980469 -35.613281 17.191406 -35.4375 17.203125 -35.308594 C 17.296875 -34.996094 17.167969 -34.984375 16.738281 -35.460938 C 16.453125 -35.757812 16.445312 -35.820312 16.785156 -35.65625 Z M 13.410156 -38 C 13.539062 -38.011719 13.867188 -37.910156 14.074219 -37.800781 C 14.277344 -37.691406 14.359375 -37.503906 14.164062 -37.488281 C 14.101562 -37.480469 13.769531 -37.578125 13.566406 -37.691406 C 13.355469 -37.867188 13.28125 -37.988281 13.410156 -38 Z M -1.3125 -61.644531 C -1.570312 -61.621094 -1.65625 -61.871094 -1.355469 -62.09375 C -1.238281 -62.230469 -1.101562 -62.179688 -1.085938 -61.988281 C -1.074219 -61.859375 -1.191406 -61.71875 -1.3125 -61.644531 Z M -1.679688 -64.257812 C -2.882812 -61.890625 -2.847656 -62.214844 -1.726562 -64.769531 C -1.339844 -65.515625 -1.015625 -66.1875 -0.949219 -66.195312 C -0.757812 -66.210938 -0.96875 -65.675781 -1.679688 -64.257812 Z M 37.085938 -91.640625 C 38.621094 -91.78125 38.414062 -91.246094 36.882812 -91.042969 C 36.113281 -90.972656 35.996094 -90.832031 36.152344 -90.523438 C 36.3125 -90.214844 36.0625 -90.128906 34.851562 -89.953125 C 34.019531 -89.878906 32.941406 -89.652344 32.433594 -89.542969 L 31.492188 -89.265625 L 32.546875 -89.746094 C 33.355469 -90.078125 33.476562 -90.152344 33.074219 -90.308594 C 32.75 -90.34375 32.488281 -90.386719 32.367188 -90.3125 C 32.191406 -90.101562 31.933594 -90.078125 30.863281 -89.789062 C 30.734375 -89.777344 30.625 -89.574219 30.644531 -89.378906 C 30.664062 -89.125 30.304688 -88.832031 29.867188 -88.664062 C 28.929688 -88.324219 28.390625 -88.597656 29.199219 -88.925781 C 29.570312 -89.089844 29.625 -89.222656 29.421875 -89.335938 C 29.21875 -89.445312 28.902344 -89.351562 28.664062 -89.136719 C 28.417969 -88.984375 28.117188 -88.765625 27.984375 -88.816406 C 27.65625 -88.851562 27.832031 -88.351562 28.164062 -88.253906 C 28.496094 -88.152344 25.859375 -87.335938 25.460938 -87.429688 C 25.398438 -87.421875 25.152344 -87.269531 24.980469 -87.0625 C 24.746094 -86.78125 24.554688 -86.765625 24.46875 -87.015625 C 24.246094 -87.316406 23.199219 -86.769531 23.304688 -86.328125 C 23.328125 -86.074219 23.191406 -86.125 22.917969 -86.292969 C 22.5 -86.644531 21.523438 -86.039062 21.820312 -85.613281 C 21.894531 -85.492188 21.410156 -85.125 20.734375 -84.742188 C 20.117188 -84.429688 19.199219 -83.894531 18.84375 -83.539062 C 18.179688 -83.027344 17.929688 -82.9375 17.457031 -83.15625 C 17.128906 -83.253906 16.871094 -83.230469 16.882812 -83.101562 C 16.894531 -82.972656 17.097656 -82.863281 17.230469 -82.8125 C 17.429688 -82.765625 17.511719 -82.578125 17.394531 -82.4375 C 17.335938 -82.371094 17.082031 -82.347656 16.871094 -82.519531 C 16.527344 -82.746094 16.464844 -82.742188 16.5 -82.359375 C 16.53125 -81.972656 15.527344 -80.980469 15.015625 -80.933594 C 14.757812 -80.910156 14.75 -80.972656 14.914062 -81.3125 C 15.195312 -81.789062 14.992188 -81.898438 14.449219 -81.460938 C 14.339844 -81.257812 14.292969 -81.0625 14.378906 -80.8125 C 14.601562 -80.507812 14.132812 -79.949219 12.691406 -78.785156 C 11.609375 -77.914062 11.421875 -77.832031 11.574219 -78.296875 C 11.683594 -78.503906 11.609375 -78.625 11.363281 -78.472656 C 11.242188 -78.398438 11.136719 -78.128906 11.160156 -77.875 C 11.3125 -77.628906 11.207031 -77.363281 11.089844 -77.222656 C 10.96875 -77.148438 10.832031 -77.199219 10.820312 -77.328125 C 10.808594 -77.457031 10.613281 -77.5 10.367188 -77.351562 C 10.117188 -77.261719 9.890625 -76.921875 9.976562 -76.671875 C 10.011719 -76.285156 9.832031 -76.140625 9.574219 -76.117188 C 9.378906 -76.164062 8.941406 -75.996094 8.632812 -75.839844 C 8.261719 -75.675781 8.214844 -75.476562 8.386719 -74.976562 C 8.5625 -74.476562 8.453125 -74.273438 7.910156 -73.835938 C 7.128906 -73.1875 6.875 -73.164062 7.097656 -73.570312 C 7.140625 -73.765625 6.890625 -73.679688 6.53125 -73.390625 C 6.171875 -73.097656 5.820312 -72.679688 5.703125 -72.539062 C 5.554688 -72.074219 6.175781 -72.324219 6.582031 -72.8125 C 6.808594 -73.15625 6.996094 -73.238281 7.015625 -73.046875 C 7.03125 -72.855469 6.746094 -72.441406 6.441406 -72.21875 C 6.089844 -71.863281 5.5625 -71.238281 5.289062 -70.695312 L 4.726562 -69.804688 L 4.785156 -70.585938 C 4.84375 -71.367188 4.777344 -71.359375 4.480469 -71.074219 C 4.3125 -70.800781 4.273438 -70.539062 4.351562 -70.351562 C 4.515625 -69.980469 3.398438 -68.074219 3.015625 -68.039062 C 2.886719 -68.027344 2.769531 -67.886719 2.773438 -67.824219 C 2.808594 -67.4375 1.390625 -65.308594 1.179688 -65.484375 C 1.109375 -65.542969 1.15625 -65.738281 1.335938 -65.886719 C 1.515625 -66.03125 1.558594 -66.292969 1.425781 -66.34375 C 1.207031 -66.582031 0.777344 -65.640625 0.839844 -64.9375 C 0.875 -64.554688 0.078125 -62.671875 -0.179688 -62.652344 C -0.242188 -62.644531 -0.0273438 -63.117188 0.121094 -63.644531 C 0.386719 -64.25 0.46875 -64.773438 0.464844 -64.839844 C 0.394531 -64.898438 0.0507812 -64.414062 -0.339844 -63.734375 C -0.660156 -62.996094 -0.945312 -62.582031 -0.957031 -62.710938 C -0.992188 -63.09375 0.636719 -66.46875 1.605469 -67.910156 C 3.753906 -71.265625 5.875 -74.234375 6.195312 -74.261719 C 6.257812 -74.269531 6.496094 -74.484375 6.609375 -74.6875 C 7.300781 -75.589844 8.652344 -77.066406 8.902344 -77.152344 C 9.03125 -77.164062 9.152344 -77.242188 9.140625 -77.367188 C 9.09375 -77.878906 14.59375 -82.703125 14.878906 -82.40625 C 14.957031 -82.28125 15.3125 -82.636719 15.660156 -83.058594 C 15.941406 -83.535156 16.359375 -83.894531 16.550781 -83.910156 C 16.742188 -83.929688 17.109375 -84.15625 17.476562 -84.382812 C 19.160156 -85.761719 22.566406 -87.359375 24.527344 -87.796875 C 25.289062 -87.929688 26.089844 -88.324219 26.382812 -88.671875 C 27.332031 -89.597656 33.179688 -91.289062 37.085938 -91.640625 Z M 3.371094 -72.652344 C 7.089844 -77.183594 9.746094 -79.941406 9.960938 -79.703125 C 10.03125 -79.644531 9.449219 -78.945312 8.609375 -78.222656 C 7.84375 -77.445312 7.132812 -76.734375 7.078125 -76.601562 C 7.023438 -76.53125 6.148438 -75.484375 5.152344 -74.363281 C 4.164062 -73.175781 2.601562 -71.164062 1.695312 -69.789062 C 0.777344 -68.480469 -0.03125 -67.441406 -0.152344 -67.363281 C -0.472656 -67.335938 2.03125 -71.046875 3.371094 -72.652344 Z M 16.996094 -85.4375 C 17.238281 -85.585938 17.308594 -85.527344 17.257812 -85.394531 C 17.144531 -85.191406 17.027344 -85.050781 16.902344 -85.039062 C 16.582031 -85.011719 16.628906 -85.210938 16.996094 -85.4375 Z M -3.972656 -61.082031 C -3.875 -62.121094 -2.910156 -65.050781 -2.222656 -66.726562 C -1.535156 -68.402344 1.300781 -72.722656 2.808594 -74.601562 C 3.390625 -75.300781 3.964844 -76.0625 4.199219 -76.339844 C 4.589844 -77.023438 6.632812 -79.402344 6.890625 -79.425781 C 6.953125 -79.429688 7.417969 -79.988281 8 -80.6875 C 8.519531 -81.378906 8.996094 -81.808594 9.078125 -81.621094 C 9.152344 -81.5 9.410156 -81.523438 9.847656 -81.691406 C 10.835938 -82.167969 11.070312 -82.449219 10.660156 -82.667969 C 10.523438 -82.785156 10.574219 -82.917969 10.945312 -83.082031 C 11.324219 -83.179688 11.558594 -83.460938 11.546875 -83.589844 C 11.535156 -83.714844 11.652344 -83.855469 11.78125 -83.867188 C 11.90625 -83.878906 11.984375 -83.757812 11.929688 -83.621094 C 11.878906 -83.488281 11.890625 -83.359375 12.019531 -83.371094 C 12.082031 -83.378906 12.25 -83.652344 12.34375 -84.046875 C 12.4375 -84.441406 12.792969 -84.796875 13.480469 -85.054688 C 14.039062 -85.296875 14.46875 -85.53125 14.457031 -85.660156 C 14.445312 -85.785156 14.632812 -85.867188 14.882812 -85.957031 C 15.136719 -85.976562 15.503906 -86.203125 15.675781 -86.476562 C 15.847656 -86.6875 15.960938 -86.890625 15.972656 -86.761719 C 15.976562 -86.699219 16.414062 -86.867188 16.839844 -87.164062 C 17.328125 -87.46875 18.125 -87.925781 18.742188 -88.238281 C 19.300781 -88.484375 20.535156 -89.113281 21.453125 -89.648438 C 23.242188 -90.582031 28.609375 -92.617188 28.816406 -92.441406 C 28.957031 -92.324219 28.589844 -92.097656 26.273438 -91.308594 C 25.214844 -90.890625 24.019531 -90.523438 23.527344 -90.285156 C 23.089844 -90.117188 22.410156 -89.796875 21.917969 -89.496094 C 21.496094 -89.199219 20.753906 -88.808594 20.261719 -88.570312 C 19.328125 -88.164062 17.734375 -87.246094 16.269531 -86.339844 C 13.652344 -84.554688 13.105469 -84.179688 12.828125 -83.703125 C 12.65625 -83.429688 12.359375 -83.144531 12.234375 -83.132812 C 12.046875 -83.050781 11.621094 -82.757812 11.273438 -82.335938 C 10.980469 -81.988281 10.386719 -81.417969 10.019531 -81.191406 C 9.660156 -80.902344 9.003906 -80.324219 8.582031 -79.964844 C 8.101562 -79.597656 7.738281 -79.308594 7.667969 -79.367188 C 7.53125 -79.480469 7.003906 -78.855469 6.433594 -78.027344 C 5.929688 -77.207031 5.289062 -76.441406 5.171875 -76.300781 C 3.722656 -75.199219 2.148438 -73.316406 2.3125 -72.945312 C 2.457031 -72.761719 2.394531 -72.757812 2.324219 -72.816406 C 1.921875 -72.972656 -1.078125 -68.3125 -2.039062 -66.097656 C -2.46875 -65.152344 -3.085938 -63.421875 -3.441406 -62.355469 C -3.792969 -61.226562 -4.003906 -60.691406 -3.972656 -61.082031 Z M -3.972656 -61.082031" transform="translate(77.173 234.186)"/></g></g></g><g><g><g><path d="M 16.859375 -69.804688 C 18.886719 -79.476562 19.429688 -87.074219 18.410156 -91.179688 C 17.808594 -93.578125 16.300781 -95.246094 13.828125 -96.1875 C 12.09375 -96.804688 8.433594 -96.601562 8.050781 -95.855469 C 7.878906 -95.582031 7.378906 -95.410156 6.921875 -95.496094 C 5.738281 -95.710938 2.851562 -91.964844 1.636719 -87.53125 C -4.816406 -63.972656 -3.703125 -44.519531 -3.332031 -39.003906 C -2.75 -29.695312 -1.875 -23.582031 -0.582031 -19.308594 C 0.9375 -13.894531 1.996094 -11.476562 2.292969 -12.46875 C 2.386719 -12.867188 2.722656 -12.703125 3.175781 -11.96875 C 3.5625 -11.292969 3.746094 -10.664062 3.648438 -10.332031 C 3.363281 -9.921875 4.769531 -8.628906 5.894531 -8.34375 C 8.214844 -7.648438 8.78125 -8.539062 9.042969 -13.46875 C 9.164062 -17.15625 9.214844 -17.289062 10.691406 -26.652344 C 11.234375 -29.929688 11.5625 -32.734375 11.488281 -32.855469 C 11.351562 -32.910156 10.851562 -31.3125 10.332031 -29.203125 C 9.683594 -27.078125 9.230469 -25.683594 9.207031 -25.9375 C 9.003906 -27.46875 13.589844 -41.695312 14.890625 -43.746094 C 15.234375 -44.230469 14.738281 -42.574219 13.742188 -40.03125 C 12.804688 -37.558594 11.882812 -34.890625 11.808594 -34.304688 C 11.515625 -33.246094 11.519531 -33.179688 12.347656 -34.03125 C 12.8125 -34.589844 13.070312 -35.324219 12.902344 -35.757812 C 12.667969 -36.191406 12.925781 -36.921875 13.386719 -37.546875 C 13.914062 -38.109375 14.234375 -38.847656 14.203125 -39.230469 C 14.171875 -39.550781 14.335938 -39.890625 14.589844 -39.914062 C 14.847656 -39.9375 15.191406 -40.417969 15.402344 -40.953125 C 15.699219 -41.949219 15.699219 -41.949219 15.808594 -40.734375 C 17.691406 -24.1875 19.324219 -20.398438 25.160156 -18.667969 C 28.34375 -17.730469 30.914062 -18.542969 32.25 -20.921875 C 33.363281 -22.894531 34.699219 -28.824219 34.222656 -29.8125 C 33.902344 -30.492188 33.65625 -30.34375 32.609375 -28.375 C 31.949219 -27.089844 31.046875 -25.652344 30.710938 -25.105469 C 29.796875 -23.796875 27.164062 -21.496094 26.585938 -21.441406 C 25.308594 -21.328125 23.496094 -27.101562 22.347656 -34.804688 C 21.941406 -37.867188 21.441406 -41.242188 21.273438 -42.386719 C 21.105469 -43.535156 20.511719 -45.09375 19.996094 -45.824219 C 19.046875 -47.027344 18.777344 -47.132812 17.179688 -46.988281 C 14.226562 -46.785156 12.753906 -44.523438 12.148438 -43.371094 C 10.621094 -40.265625 9.027344 -35.796875 7.984375 -31.636719 C 7.511719 -29.722656 6.886719 -28.050781 6.757812 -28.039062 C 6.503906 -28.015625 6.527344 -27.761719 6.695312 -27.324219 C 6.925781 -26.894531 6.878906 -26.695312 6.542969 -26.859375 C 6.269531 -27.027344 5.964844 -26.804688 5.808594 -26.40625 C 5.714844 -26.007812 5.863281 -25.828125 6.035156 -26.039062 C 6.648438 -26.417969 6.605469 -26.15625 6.023438 -23.328125 C 5.589844 -20.964844 5.039062 -19.945312 5.144531 -21.632812 C 5.238281 -22.027344 5.058594 -22.59375 4.90625 -22.839844 C 4.683594 -23.140625 4.3125 -25.109375 4.117188 -27.285156 L 3.761719 -31.191406 L 6.066406 -37.140625 C 12.472656 -53.339844 13.871094 -55.015625 16.859375 -69.804688 Z M 18.3125 -34.441406 L 17.890625 -39.113281 L 18.671875 -34.023438 C 19.113281 -31.285156 19.71875 -28.179688 20.066406 -27.175781 C 20.605469 -25.484375 20.695312 -24.523438 20.117188 -25.890625 C 18.996094 -28.308594 18.542969 -30.460938 18.3125 -34.441406 Z M 9.160156 -32.902344 C 10.441406 -37.277344 12.484375 -42.496094 13.628906 -44.148438 L 14.605469 -45.464844 L 13.914062 -43.851562 C 12.09375 -39.6875 9.796875 -32.25 8.589844 -27.042969 C 6.613281 -18.21875 6.480469 -17.558594 6.351562 -18.257812 C 6.203125 -19.210938 8.144531 -29.132812 9.160156 -32.902344 Z M 16.628906 -86.628906 C 16.785156 -88.449219 16.773438 -88.578125 16.949219 -87.367188 C 17.023438 -86.535156 17.050781 -84.796875 16.96875 -83.5625 C 16.875 -81.746094 16.761719 -81.605469 16.644531 -82.886719 C 16.570312 -83.71875 16.546875 -85.394531 16.628906 -86.628906 Z M 16.648438 -79.273438 C 16.394531 -74.925781 14.925781 -69.050781 12.007812 -59.234375 C 10.511719 -54.324219 6.730469 -44.042969 6.617188 -44.613281 C 6.59375 -44.871094 6.902344 -45.734375 7.261719 -46.738281 C 10.316406 -54.371094 13.480469 -63.628906 15.632812 -74.792969 C 16.234375 -78.140625 16.699219 -80.117188 16.648438 -79.273438 Z M 13.078125 -94.503906 C 13.191406 -94.644531 13.640625 -93.976562 14.105469 -93.113281 C 15.199219 -91.019531 14.902344 -90.734375 13.757812 -92.695312 C 13.292969 -93.554688 12.960938 -94.363281 13.078125 -94.503906 Z M 3.105469 -39.195312 L 2.984375 -42.671875 C 2.675781 -54.648438 2.867188 -77.511719 10.503906 -93.691406 C 10.933594 -94.632812 11.664062 -94.441406 12.214844 -94.039062 C 13.175781 -93.417969 14.175781 -90.925781 14.144531 -89.117188 C 14.15625 -88.277344 14.296875 -87.449219 14.503906 -87.277344 C 14.707031 -87.164062 14.777344 -87.816406 14.753906 -88.785156 C 14.628906 -90.191406 14.679688 -90.324219 15.078125 -89.523438 C 15.382812 -88.96875 15.453125 -87.492188 15.347656 -85.804688 C 15.238281 -84.179688 15.140625 -82.363281 15.148438 -81.589844 C 15.09375 -78.617188 14.8125 -76.011719 14.453125 -75.71875 C 14.273438 -75.574219 14.230469 -75.3125 14.375 -75.132812 C 14.8125 -74.589844 13.121094 -66.886719 12.222656 -65.386719 C 11.777344 -64.636719 11.6875 -64.175781 11.925781 -64.390625 C 12.289062 -64.679688 12.4375 -64.4375 12.265625 -63.515625 C 11.90625 -61.03125 10.65625 -59.175781 8.652344 -53.511719 C 7.574219 -50.445312 5.847656 -45.964844 4.902344 -43.554688 Z M 5.195312 -41.0625 C 5.171875 -41.320312 5.363281 -42.046875 5.695312 -42.660156 C 5.957031 -43.328125 6.191406 -43.605469 6.207031 -43.414062 C 6.238281 -43.09375 6.039062 -42.429688 5.777344 -41.761719 C 5.445312 -41.152344 5.21875 -40.808594 5.195312 -41.0625 Z M 5.195312 -41.0625" transform="translate(130.43 229.371)"/></g></g></g><g><g><g><path d="M -0.273438 -55.867188 C -0.933594 -55.289062 -1.230469 -53.585938 -1.066406 -51.792969 C -0.945312 -50.449219 -0.0390625 -48.980469 0.582031 -49.230469 C 0.832031 -49.316406 1.039062 -49.207031 1.125 -48.957031 C 1.210938 -48.707031 1.414062 -48.597656 1.601562 -48.675781 C 1.859375 -48.699219 2.253906 -48.605469 2.527344 -48.4375 C 3.207031 -48.046875 4.675781 -48.246094 4.824219 -48.710938 C 4.988281 -49.046875 4.945312 -52.398438 4.742188 -54.640625 C 4.6875 -55.925781 3.914062 -56.632812 2.960938 -56.480469 C 2.582031 -56.382812 2.261719 -56.351562 2.257812 -56.417969 C 2.222656 -56.800781 1.460938 -56.667969 1.046875 -56.242188 C 0.753906 -55.894531 0.632812 -55.816406 0.675781 -56.082031 C 0.699219 -56.535156 0.320312 -56.433594 -0.273438 -55.867188 Z M -2.15625 -38.851562 C -2.285156 -38.839844 -2.308594 -38.386719 -2.320312 -37.804688 C -2.273438 -37.292969 -2.292969 -36.0625 -2.261719 -35.035156 C -2.242188 -34.066406 -2.109375 -31.175781 -1.8125 -28.621094 C -1.40625 -24.140625 -1.316406 -23.824219 -0.636719 -22.015625 C 0.871094 -18.214844 2.515625 -15.714844 4.074219 -14.890625 C 4.546875 -14.675781 5.359375 -14.230469 5.839844 -13.953125 C 6.386719 -13.613281 7.25 -13.304688 7.710938 -13.21875 C 8.234375 -13.136719 8.6875 -13.113281 8.933594 -13.261719 C 9.121094 -13.34375 9.433594 -13.4375 9.703125 -13.332031 C 9.957031 -13.355469 10.148438 -13.375 10.136719 -13.5 C 10.125 -13.628906 10.429688 -13.851562 10.808594 -13.949219 C 11.816406 -14.234375 13.007812 -15.308594 13.125 -16.160156 C 13.160156 -16.484375 13.363281 -17.085938 13.65625 -17.433594 C 13.875 -17.839844 14.09375 -18.3125 14.074219 -18.503906 C 14.050781 -18.761719 14.097656 -18.957031 14.21875 -19.035156 C 14.277344 -19.101562 14.378906 -19.433594 14.414062 -19.761719 C 14.511719 -20.09375 14.664062 -20.558594 14.890625 -20.902344 C 15.125 -21.179688 15.273438 -21.644531 15.25 -21.902344 C 15.230469 -22.15625 15.253906 -22.613281 15.355469 -22.878906 C 15.652344 -23.875 15.6875 -24.199219 15.707031 -24.71875 C 15.683594 -24.972656 15.847656 -25.3125 15.964844 -25.453125 C 16.324219 -25.742188 16.371094 -26.648438 16.050781 -26.621094 C 15.988281 -26.613281 16.015625 -27.003906 16.175781 -27.40625 C 16.390625 -27.878906 16.839844 -29.339844 17.242188 -30.601562 C 17.835938 -32.589844 17.644531 -31.863281 17.632812 -33.410156 C 17.546875 -35.082031 17.527344 -35.273438 17.296875 -34.996094 C 16.933594 -34.703125 16.847656 -34.953125 17.136719 -35.304688 C 17.191406 -35.4375 17.273438 -35.960938 17.289062 -36.476562 C 17.277344 -37.316406 17.203125 -37.4375 16.882812 -37.410156 C 16.375 -37.300781 16.324219 -37.164062 16.324219 -36.457031 C 16.316406 -35.808594 16.085938 -34.820312 15.753906 -34.210938 C 15.710938 -33.949219 15.613281 -33.617188 15.636719 -33.359375 C 15.652344 -33.167969 15.625 -32.777344 15.511719 -32.574219 C 15.246094 -31.96875 14.847656 -31.351562 14.777344 -30.699219 C 14.675781 -30.433594 14.320312 -29.367188 14.019531 -28.375 C 13.660156 -27.371094 13.351562 -26.507812 13.351562 -26.507812 C 13.367188 -26.3125 12.914062 -24.917969 12.699219 -24.445312 C 11.667969 -22.289062 10.230469 -19.640625 10.707031 -20.78125 C 12.464844 -25.585938 12.878906 -26.722656 13.496094 -29.164062 C 14.277344 -31.945312 14.347656 -31.886719 14.570312 -32.296875 C 14.675781 -32.5625 14.886719 -33.097656 14.972656 -33.558594 C 15.066406 -33.953125 15.277344 -34.488281 15.449219 -34.699219 C 15.617188 -34.972656 15.886719 -35.578125 16.03125 -36.105469 C 16.113281 -36.628906 16.261719 -37.160156 16.375 -37.300781 L 15.753906 -37.757812 C 15.777344 -37.503906 15.683594 -37.816406 15.691406 -38.464844 L 15.179688 -38.417969 C 15.109375 -37.765625 14.890625 -36.585938 14.628906 -35.914062 C 14.4375 -35.1875 14.238281 -34.523438 14.25 -34.398438 C 14.261719 -34.269531 14.117188 -33.738281 13.90625 -33.203125 C 13.214844 -31.59375 12.554688 -29.597656 12.660156 -29.152344 C 12.683594 -28.898438 12.578125 -28.628906 12.457031 -28.554688 C 12.269531 -28.472656 12.105469 -28.136719 12.078125 -27.746094 C 11.964844 -26.832031 9.773438 -21.085938 9.25 -20.457031 C 9.078125 -20.246094 8.914062 -19.910156 8.925781 -19.78125 C 8.9375 -19.652344 8.769531 -19.378906 8.59375 -19.171875 C 8.355469 -18.953125 8.191406 -18.617188 8.203125 -18.488281 C 8.21875 -18.296875 7.253906 -17.566406 7.113281 -17.679688 C 6.542969 -18.273438 5.148438 -22.28125 4.582031 -25.003906 C 4.132812 -27.09375 3.664062 -32.277344 3.710938 -33.894531 C 3.757812 -34.804688 3.761719 -36.222656 3.800781 -37.195312 C 3.785156 -38.097656 3.917969 -39.464844 4.046875 -40.1875 C 4.25 -41.496094 4.25 -41.496094 3.738281 -42.160156 C 3.214844 -42.949219 2.292969 -43.191406 0.882812 -43.0625 C -0.078125 -42.976562 -1.515625 -42.457031 -1.484375 -42.136719 C -1.507812 -41.683594 -1.554688 -41.488281 -1.753906 -40.824219 C -1.917969 -40.484375 -2.082031 -40.148438 -2.203125 -40.074219 C -2.324219 -39.996094 -2.296875 -39.675781 -2.203125 -39.363281 C -2.117188 -39.113281 -2.09375 -38.855469 -2.15625 -38.851562 Z M -0.195312 -29.28125 C -0.128906 -29.289062 -0.113281 -29.097656 -0.160156 -28.898438 C -0.210938 -28.765625 -0.210938 -28.765625 -0.234375 -29.019531 C -0.324219 -29.269531 -0.269531 -29.40625 -0.195312 -29.28125 Z M -0.195312 -29.28125" transform="translate(163.843 226.35)"/></g></g></g><g><g><g><path d="M -1.570312 -28.769531 C -1.636719 -28.121094 -1.621094 -27.21875 -1.523438 -26.839844 C -1.488281 -26.457031 -1.460938 -26.136719 -1.585938 -26.125 C -1.652344 -26.117188 -1.679688 -25.726562 -1.570312 -25.222656 C -1.523438 -24.710938 -1.519531 -23.933594 -1.605469 -23.476562 C -1.628906 -23.023438 -1.636719 -22.375 -1.664062 -21.984375 C -1.550781 -20.707031 -0.824219 -14.832031 -0.628906 -14.078125 C -0.527344 -13.699219 -0.382812 -12.808594 -0.253906 -12.109375 C -0.132812 -11.476562 0.09375 -10.398438 0.214844 -9.765625 C 0.363281 -8.808594 0.550781 -7.472656 0.53125 -6.242188 C 0.589844 -4.894531 0.664062 -4.773438 1.234375 -4.175781 C 1.734375 -3.640625 1.871094 -3.589844 2.171875 -3.808594 C 2.40625 -4.089844 2.539062 -4.039062 2.835938 -3.613281 C 3.058594 -3.308594 3.394531 -3.148438 3.453125 -3.214844 C 3.582031 -3.226562 3.976562 -3.132812 4.242188 -3.03125 C 4.585938 -2.800781 4.988281 -2.644531 5.25 -2.605469 C 5.449219 -2.558594 5.769531 -2.585938 5.953125 -2.667969 C 6.078125 -2.742188 6.453125 -2.84375 6.769531 -2.933594 C 7.835938 -3.289062 7.777344 -3.21875 7.347656 -4.40625 C 7.160156 -5.035156 6.828125 -6.554688 6.65625 -7.765625 C 6.546875 -8.980469 6.15625 -11.140625 5.902344 -12.539062 C 5.644531 -13.933594 5.414062 -15.074219 5.472656 -15.144531 C 5.53125 -15.214844 5.984375 -15.191406 6.375 -15.160156 C 8.074219 -14.929688 11.234375 -14.957031 11.722656 -15.257812 C 12.214844 -15.496094 18.101562 -16.09375 23.109375 -16.351562 C 24.398438 -16.402344 25.480469 -16.566406 25.597656 -16.707031 C 25.589844 -16.769531 25.449219 -16.886719 25.128906 -16.859375 C 24.808594 -16.828125 24.484375 -16.863281 24.355469 -16.851562 C 24.285156 -16.910156 23.644531 -16.851562 23.007812 -16.792969 C 21.144531 -16.691406 21.765625 -16.941406 24.125 -17.28125 C 25.335938 -17.457031 26.347656 -17.675781 26.410156 -17.683594 C 26.46875 -17.753906 26.796875 -17.71875 27.125 -17.617188 C 27.527344 -17.460938 27.71875 -17.480469 27.957031 -17.695312 C 28.140625 -17.839844 28.261719 -17.914062 28.265625 -17.851562 C 28.285156 -17.660156 30.078125 -17.820312 34.746094 -18.308594 L 36.339844 -18.515625 C 36.339844 -18.515625 36.273438 -18.511719 36.269531 -18.574219 L 35.234375 -18.609375 C 33.808594 -18.675781 33.46875 -18.835938 34.425781 -18.988281 C 34.808594 -19.023438 35.386719 -19.074219 35.699219 -19.167969 C 35.828125 -19.179688 35.957031 -19.191406 36.082031 -19.203125 C 35.996094 -19.453125 35.972656 -19.710938 35.886719 -19.960938 C 35.808594 -20.082031 35.734375 -20.203125 35.660156 -20.328125 C 35.59375 -20.320312 35.53125 -20.316406 35.46875 -20.308594 C 35.402344 -20.304688 35.339844 -20.296875 35.273438 -20.292969 C 35.273438 -20.292969 35.28125 -20.226562 35.28125 -20.226562 C 35.554688 -20.058594 19.269531 -18.84375 18.992188 -19.078125 C 18.789062 -19.1875 18.722656 -19.183594 18.742188 -18.992188 C 18.757812 -18.796875 18.3125 -18.757812 16.832031 -18.6875 C 14.707031 -18.625 13.863281 -18.679688 13.859375 -18.742188 C 13.859375 -18.742188 13.339844 -18.761719 12.695312 -18.765625 C 11.078125 -18.8125 9.441406 -19.054688 9.351562 -19.367188 C 9.199219 -19.613281 9.390625 -19.628906 10.105469 -19.566406 C 11.078125 -19.523438 15.855469 -19.503906 16.363281 -19.613281 C 16.554688 -19.632812 17.066406 -19.679688 17.449219 -19.710938 C 17.898438 -19.753906 18.277344 -19.851562 18.328125 -19.984375 C 18.386719 -20.054688 18.765625 -20.15625 19.097656 -20.054688 C 19.941406 -20.003906 20.964844 -20.09375 22.03125 -20.449219 C 23.351562 -20.828125 22.375 -20.933594 20.003906 -20.71875 C 18.847656 -20.679688 17.945312 -20.660156 17.941406 -20.726562 C 17.933594 -20.789062 17.542969 -20.820312 17.039062 -20.707031 C 15.957031 -20.546875 11.886719 -20.566406 9.808594 -20.699219 C 8.703125 -20.792969 8.5 -20.90625 8.738281 -21.121094 C 8.984375 -21.269531 8.972656 -21.398438 8.761719 -21.574219 C 8.554688 -21.75 8.425781 -21.738281 8.25 -21.527344 C 8.078125 -21.316406 8.078125 -21.316406 8.117188 -21.578125 C 8.15625 -21.839844 8.398438 -22.058594 8.519531 -22.132812 C 8.707031 -22.214844 8.773438 -22.15625 8.714844 -22.085938 C 8.664062 -21.953125 8.675781 -21.824219 8.804688 -21.835938 C 8.867188 -21.839844 9.269531 -22.394531 9.664062 -23.011719 C 10.167969 -23.894531 10.273438 -24.164062 10.066406 -24.273438 C 9.863281 -24.382812 10.085938 -24.789062 10.902344 -25.769531 C 11.484375 -26.464844 11.898438 -26.890625 11.785156 -26.6875 C 11.332031 -26 11.847656 -25.984375 12.304688 -26.667969 C 12.59375 -27.019531 12.992188 -27.636719 13.277344 -28.046875 C 13.503906 -28.390625 14.253906 -29.363281 14.953125 -30.199219 C 15.652344 -31.039062 16.164062 -31.792969 16.09375 -31.851562 C 16.023438 -31.910156 15.722656 -31.691406 15.429688 -31.339844 C 14.546875 -30.421875 14.640625 -30.816406 15.566406 -32 C 16.257812 -32.898438 16.503906 -33.050781 16.652344 -32.804688 C 16.863281 -32.632812 16.863281 -32.632812 16.769531 -32.945312 C 16.675781 -33.261719 16.78125 -33.527344 17.191406 -34.015625 C 17.886719 -34.855469 18.160156 -34.683594 17.464844 -33.847656 C 17.230469 -33.570312 17.0625 -33.296875 17.125 -33.300781 C 17.445312 -33.328125 20.949219 -37.390625 20.8125 -37.507812 C 20.742188 -37.566406 20.199219 -37.128906 19.675781 -36.5 C 19.082031 -35.929688 18.726562 -35.574219 18.835938 -35.777344 C 18.882812 -35.976562 19.296875 -36.402344 19.652344 -36.757812 C 20.003906 -37.175781 20.652344 -37.816406 21.066406 -38.238281 C 21.546875 -38.671875 21.660156 -38.808594 21.492188 -38.535156 C 20.804688 -37.570312 21.429688 -37.820312 22.550781 -38.953125 C 23.132812 -39.652344 23.902344 -40.433594 24.199219 -40.71875 C 24.492188 -41.066406 24.722656 -41.34375 24.589844 -41.398438 C 24.515625 -41.519531 24.328125 -41.4375 24.148438 -41.292969 C 23.972656 -41.082031 23.84375 -41.070312 23.832031 -41.199219 C 23.808594 -41.457031 24.554688 -41.78125 24.890625 -41.617188 C 25.027344 -41.566406 25.394531 -41.792969 25.8125 -42.152344 C 26.347656 -42.652344 26.597656 -42.742188 26.929688 -42.640625 C 27.332031 -42.484375 27.574219 -42.636719 28.363281 -43.222656 C 28.910156 -43.59375 29.507812 -44.101562 29.746094 -44.316406 C 29.921875 -44.527344 30.230469 -44.683594 30.363281 -44.628906 C 30.5625 -44.582031 30.738281 -44.792969 30.953125 -45.265625 C 31.09375 -45.859375 31.074219 -46.050781 30.859375 -46.289062 C 30.648438 -46.464844 30.5 -46.707031 30.488281 -46.835938 C 30.476562 -46.964844 30.398438 -47.085938 30.273438 -47.074219 C 30.207031 -47.070312 29.800781 -47.289062 29.453125 -47.582031 C 29.035156 -47.929688 28.566406 -48.082031 28.054688 -48.035156 C 27.480469 -47.984375 27.28125 -48.03125 27.050781 -48.460938 C 26.824219 -48.828125 26.554688 -48.933594 26.042969 -48.886719 C 25.59375 -48.847656 25.34375 -48.757812 25.414062 -48.699219 C 25.566406 -48.457031 22.945312 -46.734375 22.671875 -46.902344 C 22.53125 -47.019531 22.46875 -47.015625 22.542969 -46.890625 C 22.621094 -46.769531 22.636719 -46.578125 22.519531 -46.4375 C 22.230469 -46.089844 21.851562 -45.992188 22.078125 -46.332031 C 22.125 -46.53125 22.0625 -46.527344 21.9375 -46.449219 C 21.824219 -46.3125 21.769531 -46.175781 21.839844 -46.117188 C 21.984375 -45.9375 20.027344 -44.019531 19.773438 -43.996094 C 19.707031 -43.988281 19.289062 -43.628906 18.886719 -43.078125 C 18.417969 -42.582031 17.996094 -42.222656 17.800781 -42.269531 C 17.59375 -42.378906 17.480469 -42.238281 17.496094 -42.046875 C 17.515625 -41.855469 17 -41.097656 16.355469 -40.394531 C 14.246094 -38.011719 11.914062 -35.28125 10.824219 -33.765625 C 10.246094 -33 9.71875 -32.4375 9.648438 -32.496094 C 9.507812 -32.613281 9.558594 -32.746094 9.6875 -32.757812 C 9.808594 -32.832031 9.921875 -33.035156 9.898438 -33.292969 C 9.863281 -33.675781 10.007812 -34.207031 11.144531 -37.34375 C 11.761719 -39.078125 12.492188 -41.722656 12.460938 -42.042969 C 12.457031 -42.109375 12.277344 -41.960938 12.050781 -41.621094 C 11.707031 -41.136719 11.707031 -41.136719 12.054688 -42.265625 C 12.253906 -42.929688 12.59375 -44.183594 12.835938 -45.046875 C 13.074219 -45.972656 13.417969 -47.164062 13.628906 -47.699219 C 13.832031 -48.300781 13.910156 -48.886719 13.898438 -49.015625 C 13.878906 -49.207031 13.996094 -49.347656 14.054688 -49.417969 C 14.121094 -49.421875 14.421875 -50.351562 14.648438 -51.40625 C 14.878906 -52.460938 15.15625 -53.644531 15.257812 -53.976562 C 15.355469 -54.308594 15.703125 -55.4375 15.875 -56.421875 C 16.109375 -57.410156 16.46875 -59.121094 16.703125 -60.109375 C 16.929688 -61.164062 17.15625 -62.21875 17.121094 -62.601562 C 17.15625 -62.925781 17.199219 -63.1875 17.257812 -63.257812 C 17.488281 -63.539062 17.71875 -64.589844 17.625 -64.90625 C 17.546875 -65.027344 17.59375 -65.226562 17.660156 -65.230469 C 17.789062 -65.242188 17.898438 -65.445312 17.871094 -65.765625 C 17.847656 -66.023438 17.886719 -66.285156 18.007812 -66.359375 C 18.125 -66.5 18.179688 -66.632812 18.109375 -66.691406 C 18.03125 -66.8125 18.007812 -67.070312 18.121094 -67.273438 C 18.386719 -67.878906 19.007812 -71.03125 19.445312 -74.039062 C 19.601562 -75.152344 19.824219 -76.269531 19.921875 -76.601562 C 20.132812 -77.136719 20.277344 -78.375 20.441406 -80.132812 C 20.765625 -83 20.300781 -88.832031 19.703125 -90.457031 C 19.199219 -91.765625 17.503906 -93.355469 16.03125 -93.933594 C 15.222656 -94.3125 14.707031 -94.328125 13.425781 -94.214844 C 11.3125 -94.023438 10.933594 -93.921875 10.96875 -93.539062 C 10.980469 -93.410156 10.863281 -93.273438 10.671875 -93.253906 C 10.289062 -93.21875 9.574219 -92.574219 8.351562 -91.109375 C 7.65625 -90.207031 7.109375 -89.125 5.96875 -86.050781 C 4.144531 -81.242188 3.507812 -78.988281 2.847656 -75.574219 C 2.59375 -74.128906 2.0625 -71.4375 1.582031 -69.585938 C 0.53125 -64.78125 -0.460938 -57.203125 -0.917969 -50.835938 C -1.039062 -49.34375 -1.210938 -46.9375 -1.269531 -45.449219 C -1.398438 -44.019531 -1.515625 -42.457031 -1.480469 -42.074219 C -1.507812 -41.683594 -1.570312 -40.195312 -1.695312 -38.761719 C -1.761719 -37.335938 -1.785156 -34.753906 -1.699219 -33.082031 C -1.613281 -31.414062 -1.566406 -29.480469 -1.570312 -28.769531 Z M 13.917969 -29.527344 C 13.515625 -28.972656 13.101562 -28.546875 12.972656 -28.535156 C 12.78125 -28.519531 13.292969 -29.277344 14.058594 -30.121094 C 14.703125 -30.824219 14.597656 -30.554688 13.917969 -29.527344 Z M 20.96875 -41.457031 C 19.316406 -39.757812 13.714844 -33.1875 10.542969 -29.027344 C 9.84375 -28.191406 9.039062 -27.085938 8.695312 -26.601562 C 8.351562 -26.117188 8.0625 -25.769531 8.050781 -25.898438 C 8.03125 -26.089844 8.816406 -27.386719 9.40625 -28.019531 C 9.640625 -28.300781 10.558594 -29.546875 11.542969 -30.796875 C 13.667969 -33.699219 19.691406 -40.632812 20.765625 -41.570312 C 20.941406 -41.777344 21.242188 -42 21.359375 -42.136719 C 21.585938 -42.480469 22.785156 -43.492188 22.796875 -43.367188 C 22.796875 -43.367188 21.976562 -42.453125 20.96875 -41.457031 Z M 9.722656 -30.953125 C 9.773438 -31.085938 10.066406 -31.4375 10.4375 -31.597656 C 10.734375 -31.882812 11.089844 -32.238281 11.121094 -32.628906 C 11.214844 -33.023438 11.445312 -33.304688 11.574219 -33.316406 C 12.023438 -33.355469 12.378906 -33.710938 12.226562 -33.957031 C 12.15625 -34.011719 12.277344 -34.089844 12.464844 -34.171875 C 12.71875 -34.195312 12.714844 -34.257812 12.585938 -34.246094 C 12.449219 -34.363281 12.308594 -34.480469 12.296875 -34.605469 C 12.289062 -34.671875 12.414062 -34.746094 12.609375 -34.699219 C 12.808594 -34.652344 12.871094 -34.660156 12.789062 -34.84375 C 12.644531 -35.027344 13.992188 -36.566406 14.671875 -36.886719 C 14.859375 -36.96875 14.960938 -37.234375 14.949219 -37.363281 C 14.933594 -37.554688 15.113281 -37.703125 15.242188 -37.714844 C 15.433594 -37.730469 15.550781 -37.871094 15.546875 -37.933594 C 15.445312 -38.3125 15.550781 -38.578125 15.742188 -38.597656 C 15.933594 -38.613281 16.289062 -38.96875 16.582031 -39.320312 C 16.929688 -39.738281 17.402344 -40.230469 17.707031 -40.453125 C 18.007812 -40.671875 18.234375 -41.015625 18.21875 -41.207031 C 18.199219 -41.402344 18.3125 -41.605469 18.445312 -41.550781 C 18.574219 -41.5625 19.121094 -41.9375 19.523438 -42.488281 C 20.699219 -43.757812 22.078125 -44.914062 22.101562 -44.65625 C 22.113281 -44.53125 22.242188 -44.542969 22.363281 -44.617188 C 22.550781 -44.699219 22.660156 -44.902344 22.640625 -45.09375 C 22.5625 -45.28125 22.675781 -45.417969 22.875 -45.375 C 23.132812 -45.394531 23.253906 -45.472656 23.230469 -45.726562 C 23.214844 -45.921875 23.441406 -46.261719 23.75 -46.421875 C 24.058594 -46.578125 24.546875 -46.878906 24.847656 -47.101562 C 25.324219 -47.53125 25.390625 -47.535156 25.738281 -47.246094 C 26.019531 -47.011719 26.03125 -46.882812 25.417969 -46.507812 C 24.144531 -45.617188 22.46875 -44.175781 20.6875 -42.464844 C 18.910156 -40.691406 13.867188 -35.070312 13.003906 -33.898438 C 12.785156 -33.488281 12.3125 -32.996094 12.023438 -32.644531 C 11.792969 -32.304688 11.277344 -31.609375 10.875 -31.058594 C 10.472656 -30.503906 9.546875 -29.324219 8.855469 -28.421875 C 7.871094 -27.171875 7.632812 -26.957031 7.78125 -27.421875 C 7.8125 -27.8125 7.976562 -28.148438 8.101562 -28.160156 C 8.15625 -28.296875 8.265625 -28.5 8.25 -28.691406 C 8.230469 -28.882812 8.453125 -29.289062 8.800781 -29.707031 C 9.09375 -30.058594 9.316406 -30.464844 9.304688 -30.59375 C 9.292969 -30.722656 9.355469 -30.726562 9.5 -30.546875 C 9.644531 -30.367188 9.710938 -30.371094 9.941406 -30.652344 C 10.171875 -30.996094 10.164062 -31.058594 9.925781 -30.84375 C 9.738281 -30.761719 9.675781 -30.757812 9.722656 -30.953125 Z M 17.625 -79.167969 C 17.53125 -79.484375 17.632812 -79.8125 17.742188 -80.019531 C 18.144531 -80.570312 18.253906 -80.0625 17.96875 -78.230469 C 17.804688 -77.183594 17.695312 -76.269531 17.710938 -76.078125 C 17.722656 -75.949219 17.613281 -75.746094 17.496094 -75.605469 C 17.4375 -75.539062 17.402344 -75.210938 17.375 -74.820312 C 17.425781 -74.246094 16.988281 -73.367188 16.941406 -73.878906 C 16.925781 -74.070312 16.796875 -74.058594 16.675781 -73.984375 C 16.558594 -73.84375 16.5625 -73.78125 16.765625 -73.667969 C 17.105469 -73.507812 17.1875 -72.609375 16.84375 -72.128906 C 16.730469 -71.925781 16.75 -71.730469 16.820312 -71.671875 C 16.894531 -71.550781 16.800781 -71.15625 16.636719 -70.816406 C 16.539062 -70.488281 16.453125 -70.027344 16.472656 -69.769531 C 16.496094 -69.515625 16.410156 -69.054688 16.242188 -68.78125 C 16.074219 -68.507812 16.042969 -68.117188 16.066406 -67.863281 C 16.148438 -67.675781 16.113281 -67.351562 16 -67.148438 C 15.828125 -66.9375 15.679688 -66.40625 15.601562 -65.882812 C 15.460938 -65.289062 15.320312 -64.695312 15.277344 -64.433594 C 14.824219 -63.039062 14.730469 -62.644531 14.875 -62.460938 C 14.953125 -62.339844 14.804688 -61.8125 14.609375 -61.148438 C 14.398438 -60.613281 14.199219 -59.949219 14.21875 -59.757812 C 14.230469 -59.628906 14.140625 -59.167969 13.984375 -58.769531 C 13.890625 -58.371094 13.746094 -57.84375 13.703125 -57.582031 C 13.59375 -57.378906 13.558594 -57.050781 13.5625 -56.988281 C 13.511719 -56.851562 13.417969 -56.457031 13.320312 -56.125 C 13.226562 -55.730469 13.082031 -55.199219 13.046875 -54.875 C 13.011719 -54.550781 12.90625 -54.28125 12.777344 -54.269531 C 12.648438 -54.257812 12.667969 -54.066406 12.757812 -53.753906 C 12.851562 -53.4375 12.804688 -53.238281 12.679688 -53.226562 C 12.550781 -53.21875 12.554688 -53.152344 12.632812 -53.03125 C 12.707031 -52.910156 12.65625 -52.773438 12.53125 -52.699219 C 12.472656 -52.628906 12.367188 -52.363281 12.386719 -52.167969 C 12.410156 -51.914062 12.363281 -51.714844 12.234375 -51.703125 C 12.113281 -51.628906 12 -51.425781 12.023438 -51.167969 C 11.984375 -50.90625 11.886719 -50.574219 11.84375 -50.3125 C 11.738281 -50.046875 11.546875 -49.320312 11.40625 -48.726562 C 11.207031 -48.0625 10.921875 -46.9375 10.730469 -46.210938 C 10.53125 -45.546875 10.292969 -44.621094 10.136719 -44.222656 C 9.957031 -43.367188 9.285156 -41.5 7.046875 -35.550781 C 6.21875 -33.285156 5.421875 -31.402344 5.359375 -31.398438 C 5.164062 -31.378906 5.164062 -31.378906 6.011719 -33.457031 C 6.429688 -34.527344 6.832031 -35.792969 6.917969 -36.25 C 7.070312 -36.714844 7.269531 -37.378906 7.4375 -37.652344 C 7.671875 -37.933594 7.769531 -38.265625 7.765625 -38.328125 C 7.757812 -38.390625 8.121094 -39.390625 8.527344 -40.589844 C 8.941406 -41.726562 9.285156 -42.917969 9.320312 -43.246094 C 9.355469 -43.570312 9.519531 -43.90625 9.570312 -44.042969 C 9.851562 -44.519531 9.835938 -45.421875 9.574219 -45.460938 C 9.4375 -45.515625 9.496094 -45.582031 9.6875 -45.601562 C 10.074219 -45.636719 10.8125 -47.445312 10.632812 -48.007812 C 10.550781 -48.195312 10.59375 -48.457031 10.773438 -48.601562 C 10.882812 -48.808594 10.992188 -49.011719 10.917969 -49.132812 C 10.84375 -49.253906 10.949219 -49.523438 11.070312 -49.597656 C 11.417969 -50.015625 11.832031 -51.863281 11.664062 -52.296875 C 11.515625 -52.542969 11.566406 -52.675781 11.757812 -52.695312 C 12.019531 -52.652344 12.476562 -54.050781 13.5 -58.402344 C 13.925781 -60.117188 14.234375 -61.695312 14.15625 -61.882812 C 14.078125 -62.003906 14.132812 -62.136719 14.203125 -62.078125 C 14.335938 -62.027344 14.457031 -62.101562 14.507812 -62.234375 C 14.625 -62.375 14.480469 -62.554688 14.347656 -62.609375 C 14.207031 -62.726562 14.136719 -62.78125 14.265625 -62.792969 C 14.523438 -62.816406 14.671875 -63.285156 14.789062 -64.132812 C 14.835938 -64.332031 14.976562 -64.925781 15.058594 -65.449219 C 15.210938 -65.914062 15.351562 -66.507812 15.390625 -66.769531 C 15.476562 -67.226562 15.476562 -67.226562 15.199219 -66.75 C 14.90625 -66.402344 14.84375 -66.394531 14.820312 -66.652344 C 14.804688 -66.84375 14.914062 -67.046875 15.03125 -67.1875 C 15.152344 -67.261719 15.199219 -67.460938 15.175781 -67.71875 C 15.160156 -67.910156 15.316406 -68.3125 15.492188 -68.519531 C 15.960938 -69.015625 16.191406 -70.066406 15.804688 -70.03125 C 15.613281 -70.015625 15.601562 -70.144531 15.769531 -70.417969 C 15.945312 -70.625 15.992188 -70.824219 15.984375 -70.886719 C 15.898438 -71.136719 16.078125 -71.992188 16.285156 -71.882812 C 16.351562 -71.824219 16.523438 -72.097656 16.617188 -72.496094 C 16.761719 -73.023438 16.742188 -73.214844 16.539062 -73.328125 C 16.273438 -73.429688 16.261719 -73.558594 16.476562 -74.03125 C 16.582031 -74.296875 16.609375 -74.6875 16.59375 -74.878906 C 16.582031 -75.007812 16.808594 -75.351562 16.976562 -75.625 C 17.269531 -75.972656 17.308594 -76.234375 17.210938 -76.613281 C 17.113281 -76.992188 17.101562 -77.121094 17.304688 -77.007812 C 17.507812 -76.898438 17.492188 -77.089844 17.355469 -77.851562 C 17.152344 -78.675781 17.140625 -78.800781 17.472656 -78.703125 C 17.734375 -78.660156 17.730469 -78.726562 17.625 -79.167969 Z M 13.355469 -60 C 13.351562 -60.066406 13.46875 -60.207031 13.519531 -60.339844 C 13.640625 -60.414062 13.710938 -60.355469 13.605469 -60.089844 C 13.507812 -59.757812 13.386719 -59.683594 13.355469 -60 Z M 5.132812 -38.15625 C 5 -38.207031 4.917969 -38.394531 4.972656 -38.527344 C 4.953125 -38.71875 5.019531 -39.433594 5.082031 -40.152344 C 5.140625 -40.929688 5.230469 -42.101562 5.292969 -42.816406 C 5.300781 -43.460938 5.375 -44.757812 5.421875 -45.667969 C 5.539062 -46.515625 5.644531 -47.496094 5.6875 -47.757812 C 5.792969 -48.023438 5.828125 -49.058594 5.808594 -49.960938 C 5.71875 -51.695312 6.34375 -57.625 6.84375 -60.640625 C 6.960938 -61.488281 7.207031 -63.058594 7.375 -64.042969 C 7.730469 -66.527344 7.988281 -67.972656 8.421875 -69.625 C 8.613281 -70.351562 8.792969 -71.207031 8.769531 -71.460938 C 8.753906 -71.65625 8.792969 -71.917969 8.910156 -72.054688 C 9.027344 -72.195312 9.195312 -73.179688 9.355469 -74.289062 C 9.511719 -75.402344 9.722656 -76.648438 9.816406 -77.042969 C 9.910156 -77.4375 9.933594 -77.890625 9.921875 -78.019531 C 9.957031 -78.347656 10.359375 -79.609375 11.402344 -82.347656 C 11.914062 -83.816406 12.308594 -85.140625 12.292969 -85.332031 C 12.28125 -85.460938 12.425781 -85.992188 12.585938 -86.394531 C 12.671875 -86.851562 12.757812 -87.3125 12.6875 -87.371094 C 12.621094 -87.429688 12.953125 -88.039062 13.46875 -88.730469 C 13.988281 -89.425781 14.621094 -90.253906 14.851562 -90.597656 C 15.195312 -91.082031 15.378906 -91.164062 15.398438 -90.972656 C 15.414062 -90.777344 15.636719 -90.476562 15.902344 -90.371094 C 16.378906 -90.09375 16.398438 -89.898438 16.667969 -87.601562 C 17.109375 -82.734375 17.066406 -80.34375 16.519531 -77.132812 C 16.214844 -75.492188 15.957031 -74.046875 15.855469 -73.78125 C 15.808594 -73.582031 15.707031 -73.25 15.730469 -72.996094 C 15.75 -72.804688 15.363281 -70.636719 14.804688 -68.265625 C 14.242188 -65.890625 13.695312 -63.386719 13.625 -62.738281 C 13.492188 -62.078125 13.152344 -60.824219 12.914062 -59.898438 C 12.488281 -58.179688 12.378906 -57.265625 12.742188 -57.492188 C 12.859375 -57.632812 12.902344 -57.894531 12.882812 -58.085938 C 12.859375 -58.34375 12.90625 -58.542969 12.984375 -58.417969 C 13.257812 -58.25 12.980469 -57 12.652344 -57.097656 C 12.320312 -57.199219 12.035156 -56.785156 11.910156 -56 C 11.882812 -55.609375 11.734375 -55.078125 11.566406 -54.804688 C 11.46875 -54.472656 11.28125 -53.683594 11.089844 -52.957031 C 10.632812 -50.847656 9.667969 -47.277344 9.265625 -46.015625 C 8.746094 -44.613281 8.652344 -44.214844 8.355469 -43.222656 C 8.253906 -42.890625 8.09375 -42.550781 7.964844 -42.539062 C 7.835938 -42.527344 7.847656 -42.402344 7.929688 -42.214844 C 8.011719 -42.027344 7.929688 -41.503906 7.773438 -41.105469 C 7.554688 -40.632812 7.253906 -39.703125 6.996094 -38.96875 C 6.734375 -38.300781 6.425781 -37.433594 6.328125 -37.101562 C 6.226562 -36.769531 6.121094 -36.5 5.996094 -36.488281 C 5.929688 -36.484375 5.878906 -36.351562 5.894531 -36.15625 C 5.90625 -36.03125 5.765625 -35.4375 5.550781 -34.964844 C 5.335938 -34.492188 5.113281 -34.085938 5.050781 -34.082031 C 4.792969 -34.058594 4.855469 -37.675781 5.09375 -37.894531 C 5.28125 -37.972656 5.269531 -38.101562 5.132812 -38.15625 Z M 0.488281 -44.574219 C 0.617188 -44.585938 0.6875 -44.527344 0.691406 -44.464844 C 0.691406 -44.464844 0.640625 -44.332031 0.515625 -44.253906 C 0.394531 -44.179688 0.324219 -44.238281 0.3125 -44.367188 C 0.308594 -44.429688 0.359375 -44.5625 0.488281 -44.574219 Z M -0.136719 -39.355469 C -0.101562 -39.683594 -0.0625 -39.945312 0.00390625 -39.949219 C 0.0664062 -39.957031 0.0898438 -39.699219 0.117188 -39.378906 C 0.140625 -39.121094 0.101562 -38.859375 -0.0273438 -38.847656 C -0.0898438 -38.84375 -0.179688 -39.09375 -0.136719 -39.355469 Z M 0.0898438 -20.402344 C 0.046875 -20.203125 -0.0234375 -20.261719 -0.046875 -20.519531 C -0.0664062 -20.710938 -0.0117188 -20.84375 0.0585938 -20.785156 C 0.125 -20.726562 0.144531 -20.535156 0.0898438 -20.402344 Z M 0.269531 -26.292969 C 0.25 -25.773438 0.238281 -25.191406 0.199219 -24.929688 C 0.09375 -24.664062 0.0078125 -24.914062 -0.00390625 -25.75 C -0.0664062 -27.164062 0.148438 -27.636719 0.269531 -26.292969 Z M 0.0625 -32.144531 C 0.136719 -32.023438 0.148438 -31.894531 0.167969 -31.703125 C 0.0507812 -31.5625 0.0507812 -31.5625 0.0273438 -31.820312 C 0.00390625 -32.074219 0 -32.140625 0.0625 -32.144531 Z M 0.078125 -29.824219 C 0.160156 -29.636719 0.1875 -29.316406 0.144531 -29.121094 C 0.101562 -28.859375 0.0859375 -29.050781 0.0507812 -29.433594 C 0.015625 -29.816406 -0.00390625 -30.011719 0.078125 -29.824219 Z M -0.191406 -27.800781 C -0.0625 -27.808594 0.125 -27.890625 0.175781 -28.027344 C 0.222656 -28.222656 0.222656 -28.222656 0.242188 -28.03125 C 0.210938 -27.640625 -0.15625 -27.414062 -0.375 -27.71875 C -0.453125 -27.839844 -0.394531 -27.910156 -0.191406 -27.800781 Z M -0.457031 -27.195312 C -0.335938 -27.269531 -0.269531 -27.273438 -0.253906 -27.082031 C -0.25 -27.019531 -0.300781 -26.886719 -0.429688 -26.875 C -0.683594 -26.851562 -0.703125 -27.042969 -0.457031 -27.195312 Z M -0.285156 -23.851562 C -0.144531 -23.738281 -0.0859375 -23.808594 -0.238281 -24.050781 C -0.320312 -24.238281 -0.265625 -24.371094 -0.0742188 -24.390625 C 0.308594 -24.421875 0.328125 -24.230469 -0.015625 -23.75 C -0.296875 -23.273438 -0.484375 -23.191406 -0.523438 -23.636719 C -0.539062 -23.832031 -0.484375 -23.898438 -0.285156 -23.851562 Z M -0.402344 -23.003906 C -0.214844 -23.085938 -0.0820312 -23.03125 -0.0742188 -22.96875 C -0.0625 -22.839844 -0.179688 -22.699219 -0.367188 -22.621094 C -0.488281 -22.542969 -0.6875 -22.589844 -0.691406 -22.65625 C -0.703125 -22.78125 -0.523438 -22.929688 -0.402344 -23.003906 Z M -0.402344 -23.003906" transform="translate(179.654 224.921)"/></g></g></g><g><g><g><path d="M 16.859375 -69.804688 C 18.886719 -79.476562 19.429688 -87.074219 18.410156 -91.179688 C 17.808594 -93.578125 16.300781 -95.246094 13.828125 -96.1875 C 12.09375 -96.804688 8.433594 -96.601562 8.050781 -95.855469 C 7.878906 -95.582031 7.378906 -95.410156 6.921875 -95.496094 C 5.738281 -95.710938 2.851562 -91.964844 1.636719 -87.53125 C -4.816406 -63.972656 -3.703125 -44.519531 -3.332031 -39.003906 C -2.75 -29.695312 -1.875 -23.582031 -0.582031 -19.308594 C 0.9375 -13.894531 1.996094 -11.476562 2.292969 -12.46875 C 2.386719 -12.867188 2.722656 -12.703125 3.175781 -11.96875 C 3.5625 -11.292969 3.746094 -10.664062 3.648438 -10.332031 C 3.363281 -9.921875 4.769531 -8.628906 5.894531 -8.34375 C 8.214844 -7.648438 8.78125 -8.539062 9.042969 -13.46875 C 9.164062 -17.15625 9.214844 -17.289062 10.691406 -26.652344 C 11.234375 -29.929688 11.5625 -32.734375 11.488281 -32.855469 C 11.351562 -32.910156 10.851562 -31.3125 10.332031 -29.203125 C 9.683594 -27.078125 9.230469 -25.683594 9.207031 -25.9375 C 9.003906 -27.46875 13.589844 -41.695312 14.890625 -43.746094 C 15.234375 -44.230469 14.738281 -42.574219 13.742188 -40.03125 C 12.804688 -37.558594 11.882812 -34.890625 11.808594 -34.304688 C 11.515625 -33.246094 11.519531 -33.179688 12.347656 -34.03125 C 12.8125 -34.589844 13.070312 -35.324219 12.902344 -35.757812 C 12.667969 -36.191406 12.925781 -36.921875 13.386719 -37.546875 C 13.914062 -38.109375 14.234375 -38.847656 14.203125 -39.230469 C 14.171875 -39.550781 14.335938 -39.890625 14.589844 -39.914062 C 14.847656 -39.9375 15.191406 -40.417969 15.402344 -40.953125 C 15.699219 -41.949219 15.699219 -41.949219 15.808594 -40.734375 C 17.691406 -24.1875 19.324219 -20.398438 25.160156 -18.667969 C 28.34375 -17.730469 30.914062 -18.542969 32.25 -20.921875 C 33.363281 -22.894531 34.699219 -28.824219 34.222656 -29.8125 C 33.902344 -30.492188 33.65625 -30.34375 32.609375 -28.375 C 31.949219 -27.089844 31.046875 -25.652344 30.710938 -25.105469 C 29.796875 -23.796875 27.164062 -21.496094 26.585938 -21.441406 C 25.308594 -21.328125 23.496094 -27.101562 22.347656 -34.804688 C 21.941406 -37.867188 21.441406 -41.242188 21.273438 -42.386719 C 21.105469 -43.535156 20.511719 -45.09375 19.996094 -45.824219 C 19.046875 -47.027344 18.777344 -47.132812 17.179688 -46.988281 C 14.226562 -46.785156 12.753906 -44.523438 12.148438 -43.371094 C 10.621094 -40.265625 9.027344 -35.796875 7.984375 -31.636719 C 7.511719 -29.722656 6.886719 -28.050781 6.757812 -28.039062 C 6.503906 -28.015625 6.527344 -27.761719 6.695312 -27.324219 C 6.925781 -26.894531 6.878906 -26.695312 6.542969 -26.859375 C 6.269531 -27.027344 5.964844 -26.804688 5.808594 -26.40625 C 5.714844 -26.007812 5.863281 -25.828125 6.035156 -26.039062 C 6.648438 -26.417969 6.605469 -26.15625 6.023438 -23.328125 C 5.589844 -20.964844 5.039062 -19.945312 5.144531 -21.632812 C 5.238281 -22.027344 5.058594 -22.59375 4.90625 -22.839844 C 4.683594 -23.140625 4.3125 -25.109375 4.117188 -27.285156 L 3.761719 -31.191406 L 6.066406 -37.140625 C 12.472656 -53.339844 13.871094 -55.015625 16.859375 -69.804688 Z M 18.3125 -34.441406 L 17.890625 -39.113281 L 18.671875 -34.023438 C 19.113281 -31.285156 19.71875 -28.179688 20.066406 -27.175781 C 20.605469 -25.484375 20.695312 -24.523438 20.117188 -25.890625 C 18.996094 -28.308594 18.542969 -30.460938 18.3125 -34.441406 Z M 9.160156 -32.902344 C 10.441406 -37.277344 12.484375 -42.496094 13.628906 -44.148438 L 14.605469 -45.464844 L 13.914062 -43.851562 C 12.09375 -39.6875 9.796875 -32.25 8.589844 -27.042969 C 6.613281 -18.21875 6.480469 -17.558594 6.351562 -18.257812 C 6.203125 -19.210938 8.144531 -29.132812 9.160156 -32.902344 Z M 16.628906 -86.628906 C 16.785156 -88.449219 16.773438 -88.578125 16.949219 -87.367188 C 17.023438 -86.535156 17.050781 -84.796875 16.96875 -83.5625 C 16.875 -81.746094 16.761719 -81.605469 16.644531 -82.886719 C 16.570312 -83.71875 16.546875 -85.394531 16.628906 -86.628906 Z M 16.648438 -79.273438 C 16.394531 -74.925781 14.925781 -69.050781 12.007812 -59.234375 C 10.511719 -54.324219 6.730469 -44.042969 6.617188 -44.613281 C 6.59375 -44.871094 6.902344 -45.734375 7.261719 -46.738281 C 10.316406 -54.371094 13.480469 -63.628906 15.632812 -74.792969 C 16.234375 -78.140625 16.699219 -80.117188 16.648438 -79.273438 Z M 13.078125 -94.503906 C 13.191406 -94.644531 13.640625 -93.976562 14.105469 -93.113281 C 15.199219 -91.019531 14.902344 -90.734375 13.757812 -92.695312 C 13.292969 -93.554688 12.960938 -94.363281 13.078125 -94.503906 Z M 3.105469 -39.195312 L 2.984375 -42.671875 C 2.675781 -54.648438 2.867188 -77.511719 10.503906 -93.691406 C 10.933594 -94.632812 11.664062 -94.441406 12.214844 -94.039062 C 13.175781 -93.417969 14.175781 -90.925781 14.144531 -89.117188 C 14.15625 -88.277344 14.296875 -87.449219 14.503906 -87.277344 C 14.707031 -87.164062 14.777344 -87.816406 14.753906 -88.785156 C 14.628906 -90.191406 14.679688 -90.324219 15.078125 -89.523438 C 15.382812 -88.96875 15.453125 -87.492188 15.347656 -85.804688 C 15.238281 -84.179688 15.140625 -82.363281 15.148438 -81.589844 C 15.09375 -78.617188 14.8125 -76.011719 14.453125 -75.71875 C 14.273438 -75.574219 14.230469 -75.3125 14.375 -75.132812 C 14.8125 -74.589844 13.121094 -66.886719 12.222656 -65.386719 C 11.777344 -64.636719 11.6875 -64.175781 11.925781 -64.390625 C 12.289062 -64.679688 12.4375 -64.4375 12.265625 -63.515625 C 11.90625 -61.03125 10.65625 -59.175781 8.652344 -53.511719 C 7.574219 -50.445312 5.847656 -45.964844 4.902344 -43.554688 Z M 5.195312 -41.0625 C 5.171875 -41.320312 5.363281 -42.046875 5.695312 -42.660156 C 5.957031 -43.328125 6.191406 -43.605469 6.207031 -43.414062 C 6.238281 -43.09375 6.039062 -42.429688 5.777344 -41.761719 C 5.445312 -41.152344 5.21875 -40.808594 5.195312 -41.0625 Z M 5.195312 -41.0625" transform="translate(215.628 221.67)"/></g></g></g><g><g><g><path d="M 17.285156 -47.253906 C 17.378906 -47.652344 16.785156 -47.792969 16.632812 -47.324219 C 16.398438 -47.046875 15.496094 -47.03125 15.46875 -47.351562 C 15.410156 -47.988281 14.820312 -47.355469 13.882812 -45.59375 C 12.0625 -42.203125 11.402344 -40.914062 11.425781 -40.660156 C 11.457031 -40.339844 11.589844 -40.285156 9.511719 -41.132812 C 7.90625 -41.761719 7.511719 -41.855469 6.03125 -41.785156 C 4.625 -41.65625 4.175781 -41.617188 3.441406 -41.164062 C 1.976562 -40.257812 1.671875 -40.035156 1.683594 -39.90625 C 1.695312 -39.78125 1.507812 -39.699219 1.253906 -39.675781 C 0.933594 -39.644531 0.875 -39.578125 0.960938 -39.328125 C 1.042969 -39.140625 1.003906 -38.878906 0.765625 -38.664062 C -0.535156 -37.320312 -2.050781 -31.246094 -2.359375 -26.117188 C -2.5625 -22.613281 -2.351562 -18.890625 -1.808594 -17.84375 C -0.929688 -15.984375 -0.492188 -15.445312 -0.171875 -15.472656 C 0.0820312 -15.496094 0.367188 -15.199219 0.652344 -14.902344 C 0.878906 -14.535156 1.152344 -14.367188 1.277344 -14.441406 C 1.398438 -14.519531 1.730469 -14.417969 2.066406 -14.257812 C 2.679688 -13.925781 4.421875 -13.886719 4.394531 -14.207031 C 4.382812 -14.335938 4.609375 -14.679688 4.894531 -15.09375 C 5.761719 -16.203125 5.875 -16.40625 5.851562 -16.664062 C 5.832031 -16.855469 6.207031 -17.726562 7.183594 -19.753906 C 7.726562 -20.898438 8.816406 -23.835938 9.207031 -25.226562 C 9.394531 -26.019531 9.644531 -26.816406 9.761719 -26.957031 C 9.8125 -27.089844 10.070312 -27.824219 10.261719 -28.550781 C 10.382812 -29.335938 10.640625 -30.070312 10.757812 -30.207031 C 10.867188 -30.410156 10.914062 -30.609375 10.769531 -30.789062 C 10.757812 -30.917969 10.804688 -31.117188 10.992188 -31.199219 C 11.113281 -31.273438 11.222656 -31.476562 11.210938 -31.605469 C 11.195312 -31.796875 11.347656 -32.261719 11.554688 -32.796875 C 11.773438 -33.269531 11.929688 -33.671875 11.929688 -33.671875 C 11.777344 -33.914062 11.886719 -34.117188 12.390625 -34.292969 C 13.390625 -34.640625 13.605469 -35.113281 13.488281 -36.394531 C 13.378906 -37.609375 13.472656 -38.003906 14.125 -39.355469 L 14.441406 -40.15625 L 14.429688 -38.867188 C 14.417969 -31.832031 14.886719 -23.09375 15.414062 -20.820312 C 15.519531 -20.378906 15.808594 -19.304688 16 -18.613281 C 16.628906 -15.960938 17.699219 -14.121094 18.464844 -14.191406 C 18.722656 -14.214844 18.996094 -14.042969 19.152344 -13.734375 C 19.378906 -13.367188 19.511719 -13.316406 19.75 -13.53125 C 19.925781 -13.742188 20.125 -13.695312 20.601562 -13.414062 C 20.945312 -13.1875 21.277344 -13.089844 21.390625 -13.226562 C 21.445312 -13.363281 21.824219 -13.460938 22.144531 -13.488281 C 22.910156 -13.558594 23 -14.019531 22.355469 -15.445312 C 20.878906 -18.925781 20.871094 -18.988281 20.1875 -27.253906 C 19.808594 -31.476562 19.460938 -35.320312 19.484375 -35.773438 C 19.441406 -36.222656 19.378906 -38.34375 19.382812 -40.476562 C 19.335938 -43.117188 19.265625 -44.59375 19.097656 -45.03125 C 18.929688 -45.46875 18.878906 -46.042969 18.914062 -46.371094 C 19.042969 -47.089844 18.703125 -47.253906 17.824219 -46.980469 C 17.320312 -46.871094 17.253906 -46.867188 17.285156 -47.253906 Z M 3.664062 -21.5625 C 3.320312 -21.082031 3.328125 -21.019531 3.484375 -24.257812 C 3.652344 -28.144531 4.460938 -32.027344 5.714844 -35.304688 C 6.980469 -38.449219 7.148438 -38.722656 7.566406 -38.375 C 7.710938 -38.195312 8.160156 -37.523438 8.542969 -36.847656 L 9.175781 -35.550781 L 6.5625 -28.796875 C 5.15625 -25.054688 3.835938 -21.835938 3.664062 -21.5625 Z M 9.722656 -33.082031 C 9.605469 -32.945312 9.445312 -32.605469 9.402344 -32.34375 C 9.363281 -32.082031 9.144531 -31.613281 8.914062 -31.332031 C 8.746094 -31.058594 8.582031 -30.722656 8.597656 -30.53125 C 8.617188 -30.335938 8.40625 -29.800781 8.191406 -29.332031 C 7.910156 -28.855469 7.777344 -28.195312 7.800781 -27.941406 C 7.816406 -27.75 7.710938 -27.480469 7.585938 -27.46875 C 7.519531 -27.464844 7.351562 -27.191406 7.316406 -26.863281 C 7.28125 -26.539062 7.125 -26.136719 7.011719 -25.933594 C 6.898438 -25.792969 6.6875 -25.257812 6.59375 -24.863281 C 6.5 -24.46875 6.117188 -23.722656 5.773438 -23.238281 C 5.136719 -22.40625 5.144531 -22.34375 5.347656 -22.941406 C 5.441406 -23.339844 5.605469 -23.675781 5.71875 -23.816406 C 5.84375 -23.890625 5.835938 -23.957031 5.710938 -23.945312 C 5.644531 -23.9375 5.699219 -24.070312 5.9375 -24.285156 C 6.109375 -24.496094 6.167969 -24.566406 6.046875 -24.492188 C 5.925781 -24.414062 5.796875 -24.402344 5.789062 -24.46875 C 5.773438 -24.660156 7.109375 -28.457031 8.261719 -31.402344 C 9.136719 -33.871094 9.472656 -34.417969 9.792969 -34.445312 C 10.1875 -34.351562 10.175781 -33.769531 9.722656 -33.082031 Z M 13.5 -42.007812 C 13.453125 -41.8125 13.339844 -41.605469 13.214844 -41.59375 C 13.148438 -41.589844 13.03125 -41.449219 13.050781 -41.257812 C 13.0625 -41.128906 13.015625 -40.933594 12.886719 -40.921875 C 12.824219 -40.914062 12.597656 -40.570312 12.4375 -40.171875 C 12.195312 -39.308594 12.136719 -39.238281 11.898438 -39.734375 C 11.738281 -40.042969 12.957031 -42.992188 13.75 -44.226562 C 13.976562 -44.570312 14.257812 -45.046875 14.304688 -45.242188 C 14.34375 -45.503906 14.453125 -45.710938 14.582031 -45.71875 C 14.839844 -45.742188 14.699219 -44.441406 14.308594 -43.757812 C 13.753906 -42.742188 13.597656 -42.339844 13.5 -42.007812 Z M 15.820312 -38.476562 C 15.8125 -37.828125 15.859375 -34.476562 15.984375 -30.9375 C 16.28125 -23.351562 16.253906 -22.25 15.945312 -27.773438 C 15.746094 -30.015625 15.628906 -32.003906 15.613281 -32.195312 C 15.484375 -33.605469 15.6875 -42.078125 15.867188 -42.222656 C 15.976562 -42.425781 15.925781 -40.164062 15.820312 -38.476562 Z M 15.820312 -38.476562" transform="translate(249.041 218.648)"/></g></g></g><g><g><g><path d="M -1.703125 -27.402344 C -1.644531 -25.34375 -1.65625 -24.761719 -1.851562 -21.90625 C -1.945312 -20.800781 -1.941406 -18.605469 -1.796875 -17.003906 C -1.65625 -15.46875 -1.664062 -14.113281 -1.726562 -14.105469 C -1.792969 -14.101562 -1.78125 -13.972656 -1.699219 -13.785156 C -1.621094 -13.664062 -1.476562 -13.484375 -1.347656 -13.496094 C -1.285156 -13.5 -0.800781 -13.15625 -0.3125 -12.75 C 0.238281 -12.347656 0.714844 -12.070312 0.839844 -12.144531 C 0.898438 -12.214844 1.101562 -12.105469 1.316406 -11.863281 C 1.460938 -11.683594 1.933594 -11.46875 2.320312 -11.441406 C 2.710938 -11.410156 3.050781 -11.246094 3.125 -11.125 C 3.195312 -11.066406 3.710938 -11.050781 4.351562 -11.105469 C 5.371094 -11.261719 5.367188 -11.328125 5.3125 -11.902344 C 5.214844 -12.28125 5.035156 -13.554688 4.855469 -14.832031 C 4.496094 -17.378906 4.589844 -18.484375 5.378906 -23.332031 C 6.140625 -27.726562 6.230469 -28.183594 6.449219 -28.59375 C 6.492188 -28.855469 6.597656 -29.121094 6.589844 -29.1875 C 6.703125 -30.101562 8.410156 -35.480469 8.851562 -36.296875 C 9.066406 -36.765625 9.226562 -37.167969 9.21875 -37.234375 C 9.214844 -37.296875 9.546875 -37.90625 9.878906 -38.519531 C 10.210938 -39.128906 10.476562 -39.734375 10.464844 -39.863281 C 10.460938 -39.925781 10.691406 -40.207031 10.929688 -40.421875 C 11.351562 -40.78125 11.351562 -40.78125 11.925781 -40.125 C 12.222656 -39.699219 12.722656 -39.164062 13.078125 -38.808594 C 13.574219 -38.335938 13.640625 -38.277344 13.171875 -38.492188 C 12.898438 -38.664062 12.625 -38.832031 12.617188 -38.894531 C 12.59375 -39.152344 11.476562 -40.082031 11.363281 -39.945312 C 11.1875 -39.734375 12.863281 -38.335938 14.699219 -37.277344 C 16.609375 -36.160156 19.097656 -35.027344 19.214844 -35.167969 C 19.28125 -35.171875 19.929688 -35.105469 20.71875 -34.980469 C 22.816406 -34.589844 24.285156 -34.789062 25.179688 -35.578125 C 26.308594 -36.648438 26.757812 -38.109375 26.027344 -38.363281 C 25.828125 -38.410156 25.753906 -38.535156 25.746094 -38.597656 C 25.855469 -38.800781 24.652344 -39.984375 24.398438 -39.960938 C 24.269531 -39.949219 24.066406 -40.058594 23.855469 -40.234375 C 23.511719 -40.460938 23.390625 -40.386719 23.019531 -39.511719 C 22.628906 -38.832031 22.335938 -38.484375 21.839844 -38.246094 C 21.46875 -38.082031 21.101562 -37.855469 21.109375 -37.792969 C 21.054688 -37.65625 20.8125 -37.507812 20.496094 -37.414062 C 20.058594 -37.246094 19.785156 -37.414062 18.386719 -38.640625 C 17.546875 -39.339844 16.40625 -40.527344 15.902344 -41.128906 C 15.027344 -42.210938 14.753906 -42.378906 13.230469 -42.824219 C 12.363281 -43.132812 11.503906 -43.378906 11.4375 -43.371094 C 11.382812 -43.300781 10.984375 -43.394531 10.582031 -43.550781 C 8.785156 -44.164062 7.011719 -42.390625 4.902344 -37.875 C 4.582031 -37.136719 4.464844 -36.996094 4.5 -37.324219 C 4.539062 -37.585938 4.554688 -38.875 4.558594 -40.230469 C 4.570312 -41.523438 4.699219 -42.957031 4.789062 -43.414062 C 4.984375 -44.078125 4.960938 -44.335938 4.597656 -44.816406 C 4.207031 -45.558594 3.609375 -45.761719 2.1875 -45.761719 C 1.667969 -45.78125 1.019531 -45.851562 0.757812 -45.890625 C 0.164062 -46.03125 -0.949219 -45.476562 -1.34375 -44.863281 C -1.683594 -44.316406 -1.769531 -43.855469 -1.449219 -43.882812 C -1.257812 -43.902344 -1.246094 -43.773438 -1.351562 -43.503906 C -1.671875 -42.765625 -1.878906 -32.9375 -1.703125 -27.402344 Z M -0.0898438 -20.96875 C -0.164062 -21.089844 -0.179688 -21.28125 -0.0664062 -21.421875 C 0.109375 -21.628906 0.179688 -21.570312 0.207031 -21.25 C 0.253906 -20.738281 0.132812 -20.664062 -0.0898438 -20.96875 Z M -0.109375 -26.902344 C -0.230469 -26.828125 -0.300781 -26.886719 -0.3125 -27.011719 C -0.324219 -27.140625 -0.265625 -27.210938 -0.136719 -27.222656 C -0.0078125 -27.234375 0.0546875 -27.238281 0.0585938 -27.175781 C 0.0664062 -27.113281 0.0117188 -26.976562 -0.109375 -26.902344 Z M 10.25 -41.519531 C 10.320312 -41.464844 10.15625 -41.125 9.859375 -40.839844 C 9.570312 -40.492188 9.414062 -40.089844 9.417969 -40.027344 C 9.429688 -39.898438 9.207031 -39.492188 8.988281 -39.082031 C 8.761719 -38.742188 8.484375 -38.199219 8.375 -37.996094 C 7.582031 -36.050781 7.316406 -35.449219 7.035156 -34.261719 C 6.835938 -33.597656 6.539062 -32.601562 6.324219 -32.132812 C 6.171875 -31.664062 5.984375 -30.875 5.898438 -30.414062 C 5.746094 -29.949219 5.59375 -29.484375 5.480469 -29.34375 C 5.367188 -29.140625 5.296875 -29.199219 5.410156 -29.402344 C 6.34375 -33.359375 7.148438 -35.882812 8.003906 -37.832031 C 9.027344 -40.054688 9.976562 -41.691406 10.25 -41.519531 Z M 8.097656 -41.777344 C 8.324219 -42.121094 8.570312 -42.273438 8.582031 -42.144531 C 8.59375 -42.015625 8.367188 -41.671875 8.132812 -41.394531 C 7.835938 -41.109375 7.65625 -40.964844 7.644531 -41.09375 C 7.632812 -41.21875 7.800781 -41.492188 8.097656 -41.777344 Z M 7.40625 -40.875 C 7.417969 -40.75 7.265625 -40.285156 6.996094 -39.679688 C 6.515625 -38.601562 5.839844 -37.507812 5.820312 -37.699219 C 5.796875 -37.957031 7.269531 -40.929688 7.40625 -40.875 Z M 4.96875 -32.847656 C 5.171875 -33.445312 5.320312 -33.976562 5.308594 -34.105469 C 5.300781 -34.167969 5.714844 -35.304688 6.238281 -36.640625 C 7.019531 -38.710938 8.515625 -41.429688 9.0625 -41.800781 C 9.246094 -41.945312 8.308594 -40.183594 7.691406 -39.160156 C 7.515625 -38.949219 7.148438 -38.015625 6.78125 -37.078125 C 6.472656 -36.210938 6.09375 -35.402344 6.035156 -35.332031 C 5.976562 -35.261719 5.878906 -34.929688 5.777344 -34.597656 C 5.621094 -33.488281 4.792969 -31.21875 4.640625 -31.460938 C 4.625 -31.65625 4.699219 -32.242188 4.96875 -32.847656 Z M 5.128906 -28.214844 L 5.390625 -28.882812 L 5.328125 -28.167969 C 5.296875 -27.777344 5.210938 -27.320312 5.09375 -27.179688 C 4.796875 -26.894531 4.871094 -27.480469 5.128906 -28.214844 Z M 5.128906 -28.214844" transform="translate(276.886 216.131)"/></g></g></g><g><g><g><path d="M 7.8125 -1.390625 C 8.035156 -1.601562 8.035156 -1.722656 7.894531 -1.992188 C 7.738281 -2.328125 7.433594 -2.484375 7.140625 -2.679688 C 6.804688 -2.914062 6.816406 -2.929688 6.527344 -2.71875 C 5.988281 -2.335938 5.480469 -2.414062 5.121094 -2.96875 C 5.039062 -3.09375 4.996094 -3.238281 4.925781 -3.367188 C 4.667969 -3.863281 4.566406 -4.40625 4.414062 -4.933594 C 4.34375 -5.179688 4.382812 -5.347656 4.5625 -5.53125 C 4.890625 -5.863281 5.25 -6.175781 5.53125 -6.574219 C 6.125 -7.410156 6.441406 -8.351562 6.65625 -9.324219 C 6.710938 -9.558594 6.652344 -9.714844 6.449219 -9.828125 C 6.347656 -9.882812 6.246094 -9.96875 6.167969 -10.066406 C 6.054688 -10.203125 5.933594 -10.230469 5.773438 -10.210938 C 5.007812 -10.140625 4.984375 -10.125 4.769531 -9.371094 C 4.730469 -9.230469 4.707031 -9.078125 4.65625 -8.9375 C 4.4375 -8.238281 4.101562 -7.601562 3.550781 -7.09375 C 3.253906 -6.832031 2.929688 -6.59375 2.535156 -6.480469 C 2.246094 -6.40625 2.144531 -6.464844 2.167969 -6.75 C 2.230469 -7.394531 2.292969 -8.039062 2.371094 -8.683594 C 2.390625 -8.875 2.332031 -9.027344 2.148438 -9.101562 C 1.988281 -9.179688 1.84375 -9.273438 1.699219 -9.363281 C 1.480469 -9.515625 1.332031 -9.484375 1.109375 -9.296875 C 1.035156 -9.234375 0.96875 -9.132812 0.886719 -9.125 C 0.664062 -9.074219 0.628906 -8.90625 0.605469 -8.726562 C 0.433594 -7.492188 0.273438 -6.253906 0.0898438 -5.015625 C -0.0898438 -3.832031 -0.117188 -2.625 -0.363281 -1.449219 L -0.375 -1.296875 C -0.410156 -0.902344 -0.3125 -0.734375 0.0546875 -0.613281 C 0.320312 -0.535156 0.570312 -0.46875 0.867188 -0.476562 C 1.367188 -0.492188 1.378906 -0.480469 1.464844 -0.933594 C 1.542969 -1.324219 1.605469 -1.722656 1.644531 -2.117188 C 1.71875 -2.761719 1.769531 -3.417969 1.832031 -4.0625 C 1.84375 -4.183594 1.84375 -4.304688 1.972656 -4.386719 C 2.308594 -4.628906 2.578125 -4.539062 2.699219 -4.160156 C 2.746094 -3.988281 2.78125 -3.816406 2.824219 -3.660156 C 3.03125 -3.03125 3.246094 -2.421875 3.605469 -1.878906 C 4.257812 -0.894531 5.1875 -0.566406 6.277344 -0.609375 C 6.902344 -0.703125 7.402344 -0.964844 7.8125 -1.390625 Z M 7.8125 -1.390625" transform="translate(172.945 236.62)"/></g></g></g><g><g><g><path d="M 5.8125 -1.746094 L 5.800781 -1.746094 C 5.679688 -2.328125 5.546875 -2.90625 5.453125 -3.507812 C 5.132812 -5.269531 4.707031 -7.023438 4.492188 -8.8125 C 4.46875 -8.902344 4.417969 -9.003906 4.40625 -9.097656 C 4.367188 -9.472656 4.15625 -9.667969 3.796875 -9.734375 C 3.613281 -9.78125 3.460938 -9.820312 3.300781 -9.679688 C 3.203125 -9.601562 3.089844 -9.492188 2.976562 -9.546875 C 2.679688 -9.675781 2.378906 -9.46875 2.113281 -9.53125 C 1.890625 -9.589844 1.84375 -9.527344 1.777344 -9.386719 C 1.660156 -9.089844 1.53125 -8.789062 1.433594 -8.480469 C 0.941406 -6.9375 0.453125 -5.382812 -0.0234375 -3.839844 L -0.816406 -1.25 C -0.945312 -0.816406 -0.886719 -0.671875 -0.472656 -0.488281 C -0.191406 -0.371094 0.0898438 -0.28125 0.382812 -0.207031 C 0.664062 -0.113281 0.765625 -0.167969 0.878906 -0.476562 C 0.988281 -0.734375 1.066406 -1 1.144531 -1.25 L 1.355469 -1.898438 C 1.386719 -1.996094 1.445312 -2.082031 1.550781 -2.109375 C 2.1875 -2.207031 2.796875 -2.449219 3.457031 -2.496094 C 3.644531 -2.503906 3.734375 -2.433594 3.765625 -2.25 L 4.011719 -1.152344 C 4.058594 -0.96875 4.167969 -0.84375 4.351562 -0.785156 C 4.589844 -0.691406 4.800781 -0.632812 5.054688 -0.796875 C 5.191406 -0.890625 5.378906 -0.898438 5.550781 -0.945312 C 5.835938 -1.046875 5.871094 -1.089844 5.855469 -1.371094 Z M 2.945312 -6.554688 L 3.3125 -4.726562 C 3.347656 -4.554688 3.320312 -4.429688 3.136719 -4.382812 C 2.792969 -4.304688 2.472656 -4.132812 2.117188 -4.1875 C 2.207031 -4.808594 2.628906 -6.261719 2.800781 -6.523438 C 2.824219 -6.554688 2.894531 -6.546875 2.945312 -6.554688 Z M 2.945312 -6.554688" transform="translate(182.67 235.532)"/></g></g></g><g><g><g><path d="M 2.960938 -9.804688 C 2.359375 -9.640625 1.789062 -9.386719 1.1875 -9.210938 C 0.804688 -9.117188 0.664062 -8.949219 0.636719 -8.582031 C 0.625 -8.445312 0.585938 -8.292969 0.578125 -8.144531 C 0.429688 -6.554688 0.132812 -4.980469 -0.109375 -3.410156 C -0.246094 -2.570312 -0.382812 -1.730469 -0.546875 -0.898438 C -0.597656 -0.625 -0.5 -0.472656 -0.308594 -0.332031 C -0.160156 -0.210938 -0.00390625 -0.148438 0.183594 -0.167969 C 0.386719 -0.179688 0.578125 -0.144531 0.773438 -0.101562 C 1.148438 -0.0078125 1.171875 -0.0351562 1.261719 -0.4375 C 1.363281 -1.003906 1.433594 -1.582031 1.546875 -2.136719 C 1.617188 -2.46875 1.585938 -2.882812 1.816406 -3.125 C 2.046875 -3.367188 2.433594 -3.289062 2.75 -3.351562 C 4.410156 -3.632812 5.546875 -4.597656 6.261719 -6.085938 C 6.632812 -6.859375 6.660156 -7.699219 6.355469 -8.492188 C 6.035156 -9.308594 5.457031 -9.878906 4.519531 -9.921875 L 3.648438 -9.949219 C 3.398438 -9.894531 3.171875 -9.855469 2.960938 -9.804688 Z M 2.382812 -7.492188 C 2.417969 -7.660156 2.5 -7.761719 2.644531 -7.804688 C 3.179688 -7.972656 3.714844 -8.046875 4.265625 -8.070312 C 4.453125 -8.074219 4.535156 -7.964844 4.605469 -7.820312 C 4.753906 -7.472656 4.683594 -7.113281 4.527344 -6.8125 C 4.042969 -5.835938 3.253906 -5.25 2.066406 -5.101562 C 2.175781 -5.953125 2.292969 -6.722656 2.382812 -7.492188 Z M 2.382812 -7.492188" transform="translate(190.376 234.67)"/></g></g></g><g><g><g><path d="M 5.8125 -1.746094 L 5.800781 -1.746094 C 5.679688 -2.328125 5.546875 -2.90625 5.453125 -3.507812 C 5.132812 -5.269531 4.707031 -7.023438 4.492188 -8.8125 C 4.46875 -8.902344 4.417969 -9.003906 4.40625 -9.097656 C 4.367188 -9.472656 4.15625 -9.667969 3.796875 -9.734375 C 3.613281 -9.78125 3.460938 -9.820312 3.300781 -9.679688 C 3.203125 -9.601562 3.089844 -9.492188 2.976562 -9.546875 C 2.679688 -9.675781 2.378906 -9.46875 2.113281 -9.53125 C 1.890625 -9.589844 1.84375 -9.527344 1.777344 -9.386719 C 1.660156 -9.089844 1.53125 -8.789062 1.433594 -8.480469 C 0.941406 -6.9375 0.453125 -5.382812 -0.0234375 -3.839844 L -0.816406 -1.25 C -0.945312 -0.816406 -0.886719 -0.671875 -0.472656 -0.488281 C -0.191406 -0.371094 0.0898438 -0.28125 0.382812 -0.207031 C 0.664062 -0.113281 0.765625 -0.167969 0.878906 -0.476562 C 0.988281 -0.734375 1.066406 -1 1.144531 -1.25 L 1.355469 -1.898438 C 1.386719 -1.996094 1.445312 -2.082031 1.550781 -2.109375 C 2.1875 -2.207031 2.796875 -2.449219 3.457031 -2.496094 C 3.644531 -2.503906 3.734375 -2.433594 3.765625 -2.25 L 4.011719 -1.152344 C 4.058594 -0.96875 4.167969 -0.84375 4.351562 -0.785156 C 4.589844 -0.691406 4.800781 -0.632812 5.054688 -0.796875 C 5.191406 -0.890625 5.378906 -0.898438 5.550781 -0.945312 C 5.835938 -1.046875 5.871094 -1.089844 5.855469 -1.371094 Z M 2.945312 -6.554688 L 3.3125 -4.726562 C 3.347656 -4.554688 3.320312 -4.429688 3.136719 -4.382812 C 2.792969 -4.304688 2.472656 -4.132812 2.117188 -4.1875 C 2.207031 -4.808594 2.628906 -6.261719 2.800781 -6.523438 C 2.824219 -6.554688 2.894531 -6.546875 2.945312 -6.554688 Z M 2.945312 -6.554688" transform="translate(197.963 233.82)"/></g></g></g><g><g><g><path d="M 1.457031 -9.242188 C 1.105469 -8.878906 0.945312 -8.46875 0.851562 -7.984375 C 0.636719 -6.890625 0.878906 -5.945312 1.691406 -5.183594 C 1.996094 -4.90625 2.308594 -4.65625 2.632812 -4.421875 C 2.972656 -4.160156 3.285156 -3.886719 3.53125 -3.519531 C 3.871094 -3.003906 3.734375 -2.433594 3.199219 -2.117188 C 2.71875 -1.832031 2.238281 -1.886719 1.765625 -2.105469 C 1.378906 -2.292969 0.992188 -2.492188 0.714844 -2.8125 C 0.542969 -2.996094 0.371094 -2.976562 0.171875 -2.929688 C -0.195312 -2.832031 -0.441406 -2.617188 -0.636719 -2.308594 C -0.941406 -1.871094 -0.945312 -1.800781 -0.566406 -1.4375 C 0.0234375 -0.882812 0.707031 -0.457031 1.488281 -0.234375 C 2.46875 0.046875 3.417969 -0.0585938 4.304688 -0.601562 C 5.25 -1.195312 5.722656 -2.292969 5.523438 -3.378906 C 5.34375 -4.347656 4.792969 -5.054688 4.0625 -5.664062 C 3.808594 -5.867188 3.53125 -6.050781 3.28125 -6.238281 C 3.042969 -6.429688 2.816406 -6.632812 2.691406 -6.917969 C 2.539062 -7.28125 2.640625 -7.847656 2.917969 -8.011719 C 3.4375 -8.328125 3.933594 -8.371094 4.410156 -7.867188 C 4.566406 -7.695312 4.695312 -7.507812 4.796875 -7.316406 C 4.917969 -7.085938 5.09375 -7.066406 5.308594 -7.089844 C 5.667969 -7.144531 5.941406 -7.375 6.246094 -7.53125 C 6.542969 -7.671875 6.589844 -7.839844 6.464844 -8.136719 C 5.789062 -9.566406 4.457031 -10.335938 2.996094 -9.996094 C 2.390625 -10.0625 1.902344 -9.726562 1.457031 -9.242188 Z M 1.457031 -9.242188" transform="translate(205.67 232.958)"/></g></g></g><g><g><g><path d="M 2.203125 -9.097656 C 1.847656 -9.246094 1.523438 -9.359375 1.128906 -9.273438 C 0.957031 -9.226562 0.855469 -9.175781 0.820312 -9.007812 C 0.6875 -8.371094 0.554688 -7.734375 0.4375 -7.097656 C 0.277344 -6.214844 0.132812 -5.332031 -0.0117188 -4.449219 L -0.558594 -1.113281 C -0.570312 -0.992188 -0.582031 -0.855469 -0.492188 -0.769531 C -0.324219 -0.585938 -0.152344 -0.390625 0.121094 -0.367188 C 0.339844 -0.347656 0.5625 -0.304688 0.78125 -0.277344 C 1.054688 -0.253906 1.195312 -0.335938 1.253906 -0.628906 C 1.324219 -0.972656 1.382812 -1.316406 1.4375 -1.664062 L 1.785156 -3.878906 L 2.550781 -8.296875 L 2.585938 -8.558594 C 2.554688 -8.835938 2.445312 -8.988281 2.203125 -9.097656 Z M 2.203125 -9.097656" transform="translate(213.23 232.112)"/></g></g></g><g><g><g><path d="M 5.8125 -1.746094 L 5.800781 -1.746094 C 5.679688 -2.328125 5.546875 -2.90625 5.453125 -3.507812 C 5.132812 -5.269531 4.707031 -7.023438 4.492188 -8.8125 C 4.46875 -8.902344 4.417969 -9.003906 4.40625 -9.097656 C 4.367188 -9.472656 4.15625 -9.667969 3.796875 -9.734375 C 3.613281 -9.78125 3.460938 -9.820312 3.300781 -9.679688 C 3.203125 -9.601562 3.089844 -9.492188 2.976562 -9.546875 C 2.679688 -9.675781 2.378906 -9.46875 2.113281 -9.53125 C 1.890625 -9.589844 1.84375 -9.527344 1.777344 -9.386719 C 1.660156 -9.089844 1.53125 -8.789062 1.433594 -8.480469 C 0.941406 -6.9375 0.453125 -5.382812 -0.0234375 -3.839844 L -0.816406 -1.25 C -0.945312 -0.816406 -0.886719 -0.671875 -0.472656 -0.488281 C -0.191406 -0.371094 0.0898438 -0.28125 0.382812 -0.207031 C 0.664062 -0.113281 0.765625 -0.167969 0.878906 -0.476562 C 0.988281 -0.734375 1.066406 -1 1.144531 -1.25 L 1.355469 -1.898438 C 1.386719 -1.996094 1.445312 -2.082031 1.550781 -2.109375 C 2.1875 -2.207031 2.796875 -2.449219 3.457031 -2.496094 C 3.644531 -2.503906 3.734375 -2.433594 3.765625 -2.25 L 4.011719 -1.152344 C 4.058594 -0.96875 4.167969 -0.84375 4.351562 -0.785156 C 4.589844 -0.691406 4.800781 -0.632812 5.054688 -0.796875 C 5.191406 -0.890625 5.378906 -0.898438 5.550781 -0.945312 C 5.835938 -1.046875 5.871094 -1.089844 5.855469 -1.371094 Z M 2.945312 -6.554688 L 3.3125 -4.726562 C 3.347656 -4.554688 3.320312 -4.429688 3.136719 -4.382812 C 2.792969 -4.304688 2.472656 -4.132812 2.117188 -4.1875 C 2.207031 -4.808594 2.628906 -6.261719 2.800781 -6.523438 C 2.824219 -6.554688 2.894531 -6.546875 2.945312 -6.554688 Z M 2.945312 -6.554688" transform="translate(216.984 231.692)"/></g></g></g></svg>